<?xml version="1.0" encoding="UTF-8" standalone="no"?>
<!DOCTYPE svg PUBLIC "-//W3C//DTD SVG 1.1//EN"
 "http://www.w3.org/Graphics/SVG/1.1/DTD/svg11.dtd">
<!-- Generated by graphviz version 2.43.0 (0)
 -->
<!-- Title: architecture Pages: 1 -->
<svg width="1438pt" height="414pt"
 viewBox="0.00 0.00 1437.83 414.00" xmlns="http://www.w3.org/2000/svg" xmlns:xlink="http://www.w3.org/1999/xlink">
<g id="graph0" class="graph" transform="scale(1 1) rotate(0) translate(36 378)">
<title>architecture</title>
<polygon fill="black" stroke="transparent" points="-36,36 -36,-378 1401.83,-378 1401.83,36 -36,36"/>
<text text-anchor="middle" x="682.92" y="-325.2" font-family="Courier New" font-size="16.00" fill="#00ff41">paper&#45;processor — system architecture</text>
<g id="clust1" class="cluster">
<title>cluster_ui</title>
<polygon fill="black" stroke="#ff00ff" stroke-dasharray="5,2" points="8,-154 8,-232 380,-232 380,-154 8,-154"/>
<text text-anchor="middle" x="194" y="-215.2" font-family="Courier New" font-size="16.00" fill="#ff00ff">User Interface</text>
</g>
<g id="clust2" class="cluster">
<title>cluster_py</title>
<polygon fill="black" stroke="#00ffff" stroke-dasharray="5,2" points="436.31,-148 436.31,-308 1161.83,-308 1161.83,-148 436.31,-148"/>
<text text-anchor="middle" x="799.07" y="-291.2" font-family="Courier New" font-size="16.00" fill="#00ffff">Python Pipeline</text>
</g>
<g id="clust3" class="cluster">
<title>cluster_llm</title>
<polygon fill="black" stroke="#ff6600" stroke-dasharray="5,2" points="401,-8 401,-140 851.63,-140 851.63,-8 401,-8"/>
<text text-anchor="middle" x="626.31" y="-123.2" font-family="Courier New" font-size="16.00" fill="#ff6600">Local LLM Backend</text>
</g>
<g id="clust4" class="cluster">
<title>cluster_out</title>
<polygon fill="black" stroke="#da70ff" stroke-dasharray="5,2" points="1182.83,-117 1182.83,-269 1364.83,-269 1364.83,-117 1182.83,-117"/>
<text text-anchor="middle" x="1273.83" y="-252.2" font-family="Courier New" font-size="16.00" fill="#da70ff">Per&#45;paper Dossier</text>
</g>
<!-- wizard -->
<g id="node1" class="node">
<title>wizard</title>
<polygon fill="#0a0a0a" stroke="#ff00ff" stroke-width="2" points="120,-198 20,-198 16,-194 16,-162 116,-162 120,-166 120,-198"/>
<polyline fill="none" stroke="#ff00ff" stroke-width="2" points="116,-194 16,-194 "/>
<polyline fill="none" stroke="#ff00ff" stroke-width="2" points="116,-194 116,-162 "/>
<polyline fill="none" stroke="#ff00ff" stroke-width="2" points="116,-194 120,-198 "/>
<text text-anchor="middle" x="68" y="-183.2" font-family="Courier New" font-size="11.00" fill="#ff00ff">paper&#45;wizard</text>
<text text-anchor="middle" x="68" y="-171.2" font-family="Courier New" font-size="11.00" fill="#ff00ff">(Ratatui TUI)</text>
</g>
<!-- cli -->
<g id="node2" class="node">
<title>cli</title>
<polygon fill="#0a0a0a" stroke="#ff00ff" stroke-width="2" points="372,-198 187,-198 187,-162 372,-162 372,-198"/>
<text text-anchor="middle" x="279.5" y="-183.2" font-family="Courier New" font-size="11.00" fill="#ff00ff">python paper_processor.py</text>
<text text-anchor="middle" x="279.5" y="-171.2" font-family="Courier New" font-size="11.00" fill="#ff00ff">(direct CLI)</text>
</g>
<!-- wizard&#45;&gt;cli -->
<g id="edge1" class="edge">
<title>wizard&#45;&gt;cli</title>
<path fill="none" stroke="#ff00ff" stroke-width="2" d="M120.25,-180C137.37,-180 157.1,-180 176.7,-180"/>
<polygon fill="#ff00ff" stroke="#ff00ff" stroke-width="2" points="176.92,-183.5 186.92,-180 176.92,-176.5 176.92,-183.5"/>
<text text-anchor="middle" x="153.5" y="-183" font-family="Courier New" font-size="10.00">spawn</text>
</g>
<!-- pdf -->
<g id="node3" class="node">
<title>pdf</title>
<path fill="#0a0a0a" stroke="#00ffff" stroke-width="2" d="M562.31,-198C562.31,-200.21 535.87,-202 503.31,-202 470.76,-202 444.31,-200.21 444.31,-198 444.31,-198 444.31,-162 444.31,-162 444.31,-159.79 470.76,-158 503.31,-158 535.87,-158 562.31,-159.79 562.31,-162 562.31,-162 562.31,-198 562.31,-198"/>
<path fill="none" stroke="#00ffff" stroke-width="2" d="M562.31,-198C562.31,-195.79 535.87,-194 503.31,-194 470.76,-194 444.31,-195.79 444.31,-198"/>
<text text-anchor="middle" x="503.31" y="-183.2" font-family="Courier New" font-size="11.00" fill="#00ffff">PyMuPDF</text>
<text text-anchor="middle" x="503.31" y="-171.2" font-family="Courier New" font-size="11.00" fill="#00ffff">extract + chunk</text>
</g>
<!-- cli&#45;&gt;pdf -->
<g id="edge2" class="edge">
<title>cli&#45;&gt;pdf</title>
<path fill="none" stroke="#00ffff" stroke-width="2" d="M372,-180C392.73,-180 414.4,-180 433.98,-180"/>
<polygon fill="#00ffff" stroke="#00ffff" stroke-width="2" points="434.01,-183.5 444.01,-180 434.01,-176.5 434.01,-183.5"/>
</g>
<!-- proc -->
<g id="node4" class="node">
<title>proc</title>
<polygon fill="#0a0a0a" stroke="#00ffff" stroke-width="2" points="853.63,-192 742.63,-192 742.63,-188 738.63,-188 738.63,-184 742.63,-184 742.63,-164 738.63,-164 738.63,-160 742.63,-160 742.63,-156 853.63,-156 853.63,-192"/>
<polyline fill="none" stroke="#00ffff" stroke-width="2" points="742.63,-188 746.63,-188 746.63,-184 742.63,-184 "/>
<polyline fill="none" stroke="#00ffff" stroke-width="2" points="742.63,-164 746.63,-164 746.63,-160 742.63,-160 "/>
<text text-anchor="middle" x="798.13" y="-177.2" font-family="Courier New" font-size="11.00" fill="#00ffff">PaperProcessor</text>
<text text-anchor="middle" x="798.13" y="-165.2" font-family="Courier New" font-size="11.00" fill="#00ffff">5 sections</text>
</g>
<!-- pdf&#45;&gt;proc -->
<g id="edge3" class="edge">
<title>pdf&#45;&gt;proc</title>
<path fill="none" stroke="#00ffff" stroke-width="2" d="M562.51,-178.81C611.51,-177.8 681.51,-176.37 732.29,-175.33"/>
<polygon fill="#00ffff" stroke="#00ffff" stroke-width="2" points="732.57,-178.82 742.5,-175.12 732.43,-171.83 732.57,-178.82"/>
<text text-anchor="middle" x="670.13" y="-180" font-family="Courier New" font-size="10.00">pages</text>
</g>
<!-- meta -->
<g id="node5" class="node">
<title>meta</title>
<polygon fill="#0a0a0a" stroke="#7fff00" stroke-width="2" points="1101.73,-192 996.73,-192 996.73,-156 1107.73,-156 1107.73,-186 1101.73,-192"/>
<polyline fill="none" stroke="#7fff00" stroke-width="2" points="1101.73,-192 1101.73,-186 "/>
<polyline fill="none" stroke="#7fff00" stroke-width="2" points="1107.73,-186 1101.73,-186 "/>
<text text-anchor="middle" x="1052.23" y="-177.2" font-family="Courier New" font-size="11.00" fill="#7fff00">metadata.json</text>
<text text-anchor="middle" x="1052.23" y="-165.2" font-family="Courier New" font-size="11.00" fill="#7fff00">(resume state)</text>
</g>
<!-- proc&#45;&gt;meta -->
<g id="edge11" class="edge">
<title>proc&#45;&gt;meta</title>
<path fill="none" stroke="#7fff00" stroke-width="2" d="M853.74,-170.66C859.78,-170.39 865.83,-170.16 871.63,-170 909.63,-168.95 952.16,-169.81 986.29,-170.99"/>
<polygon fill="#7fff00" stroke="#7fff00" stroke-width="2" points="986.48,-174.5 996.6,-171.37 986.73,-167.51 986.48,-174.5"/>
</g>
<!-- dot -->
<g id="node6" class="node">
<title>dot</title>
<polygon fill="#0a0a0a" stroke="#ffff00" stroke-width="2" points="1153.93,-274 992.14,-274 950.52,-210 1112.31,-210 1153.93,-274"/>
<text text-anchor="middle" x="1052.23" y="-245.2" font-family="Courier New" font-size="11.00" fill="#ffff00">Graphviz dot</text>
<text text-anchor="middle" x="1052.23" y="-233.2" font-family="Courier New" font-size="11.00" fill="#ffff00">→ SVG</text>
</g>
<!-- proc&#45;&gt;dot -->
<g id="edge9" class="edge">
<title>proc&#45;&gt;dot</title>
<path fill="none" stroke="#ffff00" stroke-width="2" d="M853.83,-188.75C880.29,-195.89 913.01,-204.72 944.14,-213.12"/>
<polygon fill="#ffff00" stroke="#ffff00" stroke-width="2" points="943.62,-216.6 954.19,-215.82 945.44,-209.84 943.62,-216.6"/>
<text text-anchor="middle" x="902.13" y="-211" font-family="Courier New" font-size="10.00">DOT blocks</text>
</g>
<!-- ollama -->
<g id="node7" class="node">
<title>ollama</title>
<polygon fill="#0a0a0a" stroke="#ff6600" stroke-width="2" points="593.45,-67.86 593.45,-88.14 540.65,-102.48 465.98,-102.48 413.18,-88.14 413.18,-67.86 465.98,-53.52 540.65,-53.52 593.45,-67.86"/>
<polygon fill="none" stroke="#ff6600" stroke-width="2" points="597.44,-64.8 597.44,-91.2 541.18,-106.48 465.45,-106.48 409.19,-91.2 409.19,-64.8 465.45,-49.52 541.18,-49.52 597.44,-64.8"/>
<text text-anchor="middle" x="503.31" y="-81.2" font-family="Courier New" font-size="11.00" fill="#ff6600">Ollama</text>
<text text-anchor="middle" x="503.31" y="-69.2" font-family="Courier New" font-size="11.00" fill="#ff6600">127.0.0.1:11434</text>
</g>
<!-- proc&#45;&gt;ollama -->
<g id="edge4" class="edge">
<title>proc&#45;&gt;ollama</title>
<path fill="none" stroke="#ff6600" stroke-width="2" d="M742.59,-160.84C706.27,-151.63 657.67,-138.42 615.63,-124 599.98,-118.64 583.38,-112.2 567.91,-105.86"/>
<polygon fill="#ff6600" stroke="#ff6600" stroke-width="2" points="569.02,-102.53 558.44,-101.93 566.34,-108.99 569.02,-102.53"/>
<text text-anchor="middle" x="670.13" y="-158" font-family="Courier New" font-size="10.00" fill="#ff6600">POST /api/generate</text>
</g>
<!-- md -->
<g id="node10" class="node">
<title>md</title>
<polygon fill="#0a0a0a" stroke="#da70ff" stroke-width="2" points="1349.83,-181 1346.83,-185 1325.83,-185 1322.83,-181 1197.83,-181 1197.83,-125 1349.83,-125 1349.83,-181"/>
<text text-anchor="middle" x="1273.83" y="-168.2" font-family="Courier New" font-size="11.00" fill="#da70ff">01_summary.md</text>
<text text-anchor="middle" x="1273.83" y="-156.2" font-family="Courier New" font-size="11.00" fill="#da70ff">02_symbolic_logic.md</text>
<text text-anchor="middle" x="1273.83" y="-144.2" font-family="Courier New" font-size="11.00" fill="#da70ff">03_cpp_examples.md</text>
<text text-anchor="middle" x="1273.83" y="-132.2" font-family="Courier New" font-size="11.00" fill="#da70ff">04_extras.md</text>
</g>
<!-- proc&#45;&gt;md -->
<g id="edge8" class="edge">
<title>proc&#45;&gt;md</title>
<path fill="none" stroke="#da70ff" stroke-width="2" d="M853.87,-161.84C882.52,-156.09 918.29,-149.86 950.63,-147 1044.13,-138.73 1068,-144.47 1161.83,-147 1170.15,-147.22 1178.82,-147.54 1187.48,-147.92"/>
<polygon fill="#da70ff" stroke="#da70ff" stroke-width="2" points="1187.47,-151.42 1197.62,-148.38 1187.79,-144.43 1187.47,-151.42"/>
</g>
<!-- meta&#45;&gt;proc -->
<g id="edge12" class="edge">
<title>meta&#45;&gt;proc</title>
<path fill="none" stroke="#7fff00" stroke-width="2" stroke-dasharray="5,2" d="M996.63,-174C957.68,-174 905.12,-174 864.02,-174"/>
<polygon fill="#7fff00" stroke="#7fff00" stroke-width="2" points="863.83,-170.5 853.83,-174 863.83,-177.5 863.83,-170.5"/>
<text text-anchor="middle" x="902.13" y="-177" font-family="Courier New" font-size="10.00" fill="#7fff00">resume</text>
</g>
<!-- diag -->
<g id="node11" class="node">
<title>diag</title>
<polygon fill="#0a0a0a" stroke="#ffff00" stroke-width="2" points="1332.83,-235 1329.83,-239 1308.83,-239 1305.83,-235 1214.83,-235 1214.83,-199 1332.83,-199 1332.83,-235"/>
<text text-anchor="middle" x="1273.83" y="-220.2" font-family="Courier New" font-size="11.00" fill="#ffff00">diagrams/</text>
<text text-anchor="middle" x="1273.83" y="-208.2" font-family="Courier New" font-size="11.00" fill="#ffff00">6 × .dot + .svg</text>
</g>
<!-- dot&#45;&gt;diag -->
<g id="edge10" class="edge">
<title>dot&#45;&gt;diag</title>
<path fill="none" stroke="#ffff00" stroke-width="2" d="M1127.88,-233.5C1152.69,-230.68 1180.17,-227.55 1204.48,-224.78"/>
<polygon fill="#ffff00" stroke="#ffff00" stroke-width="2" points="1205.14,-228.23 1214.68,-223.62 1204.35,-221.27 1205.14,-228.23"/>
</g>
<!-- ollama&#45;&gt;proc -->
<g id="edge7" class="edge">
<title>ollama&#45;&gt;proc</title>
<path fill="none" stroke="#ff0055" stroke-width="2" d="M597.66,-88.06C652.8,-94.69 713.89,-103.49 724.63,-111 738.32,-120.57 730.84,-132.16 742.63,-144 744.7,-146.08 746.95,-148.06 749.31,-149.93"/>
<polygon fill="#ff0055" stroke="#ff0055" stroke-width="2" points="747.51,-152.94 757.69,-155.89 751.56,-147.24 747.51,-152.94"/>
<text text-anchor="middle" x="670.13" y="-114" font-family="Courier New" font-size="10.00" fill="#ff0055">response</text>
</g>
<!-- g3080 -->
<g id="node8" class="node">
<title>g3080</title>
<polygon fill="#0a0a0a" stroke="#00ff41" stroke-width="2" points="843.63,-52 752.63,-52 752.63,-16 843.63,-16 843.63,-52"/>
<text text-anchor="middle" x="798.13" y="-37.2" font-family="Courier New" font-size="11.00" fill="#00ff41">RTX 3080</text>
<text text-anchor="middle" x="798.13" y="-25.2" font-family="Courier New" font-size="11.00" fill="#00ff41">10 GiB VRAM</text>
</g>
<!-- ollama&#45;&gt;g3080 -->
<g id="edge5" class="edge">
<title>ollama&#45;&gt;g3080</title>
<path fill="none" stroke="#00ff41" stroke-width="2" d="M595.13,-64.1C602.06,-63.05 608.96,-62.01 615.63,-61 658.06,-54.6 706.09,-47.46 742.08,-42.13"/>
<polygon fill="#00ff41" stroke="#00ff41" stroke-width="2" points="742.99,-45.54 752.37,-40.61 741.96,-38.61 742.99,-45.54"/>
<text text-anchor="middle" x="670.13" y="-64" font-family="Courier New" font-size="10.00" fill="#00ff41">layers 0..n</text>
</g>
<!-- g3060 -->
<g id="node9" class="node">
<title>g3060</title>
<polygon fill="#0a0a0a" stroke="#00ff41" stroke-width="2" points="843.63,-106 752.63,-106 752.63,-70 843.63,-70 843.63,-106"/>
<text text-anchor="middle" x="798.13" y="-91.2" font-family="Courier New" font-size="11.00" fill="#00ff41">RTX 3060</text>
<text text-anchor="middle" x="798.13" y="-79.2" font-family="Courier New" font-size="11.00" fill="#00ff41">12 GiB VRAM</text>
</g>
<!-- ollama&#45;&gt;g3060 -->
<g id="edge6" class="edge">
<title>ollama&#45;&gt;g3060</title>
<path fill="none" stroke="#00ff41" stroke-width="2" d="M597.66,-75.97C636.9,-75.76 683.02,-76.33 724.63,-79 730.38,-79.37 736.38,-79.89 742.36,-80.5"/>
<polygon fill="#00ff41" stroke="#00ff41" stroke-width="2" points="742.02,-83.98 752.34,-81.6 742.78,-77.03 742.02,-83.98"/>
<text text-anchor="middle" x="670.13" y="-82" font-family="Courier New" font-size="10.00" fill="#00ff41">layers n..49</text>
</g>
</g>
</svg>
