<?xml version="1.0" encoding="UTF-8" standalone="no"?>
<!DOCTYPE svg PUBLIC "-//W3C//DTD SVG 1.1//EN"
 "http://www.w3.org/Graphics/SVG/1.1/DTD/svg11.dtd">
<!-- Generated by graphviz version 2.43.0 (0)
 -->
<!-- Title: wizard_tabs Pages: 1 -->
<svg width="630pt" height="686pt"
 viewBox="0.00 0.00 629.50 686.00" xmlns="http://www.w3.org/2000/svg" xmlns:xlink="http://www.w3.org/1999/xlink">
<g id="graph0" class="graph" transform="scale(1 1) rotate(0) translate(36 650)">
<title>wizard_tabs</title>
<polygon fill="black" stroke="transparent" points="-36,36 -36,-650 593.5,-650 593.5,36 -36,36"/>
<text text-anchor="middle" x="278.75" y="-597.2" font-family="Courier New" font-size="16.00" fill="#ff00ff">paper&#45;wizard — TUI state machine</text>
<g id="clust1" class="cluster">
<title>cluster_tabs</title>
<polygon fill="black" stroke="#00ffff" stroke-dasharray="5,2" points="8,-83 8,-525 346,-525 346,-83 8,-83"/>
<text text-anchor="middle" x="177" y="-508.2" font-family="Courier New" font-size="16.00" fill="#00ffff">5 tabs — Tab / Shift&#45;Tab to cycle</text>
</g>
<!-- start -->
<g id="node1" class="node">
<title>start</title>
<ellipse fill="#0a0a0a" stroke="#ff00ff" stroke-width="2" cx="241" cy="-570" rx="58.86" ry="18"/>
<text text-anchor="middle" x="241" y="-567.2" font-family="Courier New" font-size="11.00" fill="#ff00ff">paper&#45;wizard</text>
</g>
<!-- t1 -->
<g id="node2" class="node">
<title>t1</title>
<polygon fill="#0a0a0a" stroke="#00ff41" stroke-width="2" points="317,-491 165,-491 165,-447 317,-447 317,-491"/>
<text text-anchor="middle" x="241" y="-478.2" font-family="Courier New" font-size="11.00" fill="#00ff41">① Overview</text>
<text text-anchor="middle" x="241" y="-466.2" font-family="Courier New" font-size="11.00" fill="#00ff41">pipeline description</text>
<text text-anchor="middle" x="241" y="-454.2" font-family="Courier New" font-size="11.00" fill="#00ff41">+ health panel (F5)</text>
</g>
<!-- start&#45;&gt;t1 -->
<g id="edge1" class="edge">
<title>start&#45;&gt;t1</title>
<path fill="none" stroke="#ff00ff" stroke-width="2" d="M241,-551.76C241,-537.94 241,-518.19 241,-501.56"/>
<polygon fill="#ff00ff" stroke="#ff00ff" stroke-width="2" points="244.5,-501.18 241,-491.18 237.5,-501.18 244.5,-501.18"/>
</g>
<!-- t2 -->
<g id="node3" class="node">
<title>t2</title>
<polygon fill="#0a0a0a" stroke="#00ffff" stroke-width="2" points="333.5,-400 148.5,-400 148.5,-356 333.5,-356 333.5,-400"/>
<text text-anchor="middle" x="241" y="-387.2" font-family="Courier New" font-size="11.00" fill="#00ffff">② Scan</text>
<text text-anchor="middle" x="241" y="-375.2" font-family="Courier New" font-size="11.00" fill="#00ffff">recursive rglob</text>
<text text-anchor="middle" x="241" y="-363.2" font-family="Courier New" font-size="11.00" fill="#00ffff">status from metadata.json</text>
</g>
<!-- t1&#45;&gt;t2 -->
<g id="edge9" class="edge">
<title>t1&#45;&gt;t2</title>
<path fill="none" stroke="#555555" stroke-width="2" stroke-dasharray="5,2" d="M241,-446.91C241,-436.01 241,-422.5 241,-410.41"/>
<polygon fill="#555555" stroke="#555555" stroke-width="2" points="244.5,-410.25 241,-400.25 237.5,-410.25 244.5,-410.25"/>
<text text-anchor="middle" x="250.5" y="-421" font-family="Courier New" font-size="10.00">Tab</text>
</g>
<!-- health -->
<g id="node7" class="node">
<title>health</title>
<polygon fill="#0a0a0a" stroke="#7fff00" stroke-width="2" points="506,-400 354,-400 354,-396 350,-396 350,-392 354,-392 354,-364 350,-364 350,-360 354,-360 354,-356 506,-356 506,-400"/>
<polyline fill="none" stroke="#7fff00" stroke-width="2" points="354,-396 358,-396 358,-392 354,-392 "/>
<polyline fill="none" stroke="#7fff00" stroke-width="2" points="354,-364 358,-364 358,-360 354,-360 "/>
<text text-anchor="middle" x="430" y="-387.2" font-family="Courier New" font-size="11.00" fill="#7fff00">GET /api/tags</text>
<text text-anchor="middle" x="430" y="-375.2" font-family="Courier New" font-size="11.00" fill="#7fff00">dot &#45;V · nvidia&#45;smi</text>
<text text-anchor="middle" x="430" y="-363.2" font-family="Courier New" font-size="11.00" fill="#7fff00">import fitz,requests</text>
</g>
<!-- t1&#45;&gt;health -->
<g id="edge2" class="edge">
<title>t1&#45;&gt;health</title>
<path fill="none" stroke="#7fff00" stroke-width="2" d="M285.79,-446.91C312.76,-434.21 347.28,-417.95 375.79,-404.53"/>
<polygon fill="#7fff00" stroke="#7fff00" stroke-width="2" points="377.65,-407.52 385.2,-400.09 374.67,-401.19 377.65,-407.52"/>
<text text-anchor="middle" x="352.5" y="-421" font-family="Courier New" font-size="10.00" fill="#7fff00">F5</text>
</g>
<!-- t3 -->
<g id="node4" class="node">
<title>t3</title>
<polygon fill="#0a0a0a" stroke="#ffff00" stroke-width="2" points="337.5,-309 138.5,-309 138.5,-265 337.5,-265 337.5,-309"/>
<text text-anchor="middle" x="238" y="-296.2" font-family="Courier New" font-size="11.00" fill="#ffff00">③ Config</text>
<text text-anchor="middle" x="238" y="-284.2" font-family="Courier New" font-size="11.00" fill="#ffff00">papers_dir · model</text>
<text text-anchor="middle" x="238" y="-272.2" font-family="Courier New" font-size="11.00" fill="#ffff00">backend · paper · reprocess</text>
</g>
<!-- t2&#45;&gt;t3 -->
<g id="edge10" class="edge">
<title>t2&#45;&gt;t3</title>
<path fill="none" stroke="#555555" stroke-width="2" stroke-dasharray="5,2" d="M240.29,-355.91C239.92,-345.01 239.47,-331.5 239.06,-319.41"/>
<polygon fill="#555555" stroke="#555555" stroke-width="2" points="242.55,-319.13 238.72,-309.25 235.56,-319.36 242.55,-319.13"/>
<text text-anchor="middle" x="248.5" y="-330" font-family="Courier New" font-size="10.00">Tab</text>
</g>
<!-- select -->
<g id="node10" class="node">
<title>select</title>
<polygon fill="#0a0a0a" stroke="#00ffff" stroke-width="2" points="551.5,-305 446.5,-305 446.5,-269 557.5,-269 557.5,-299 551.5,-305"/>
<polyline fill="none" stroke="#00ffff" stroke-width="2" points="551.5,-305 551.5,-299 "/>
<polyline fill="none" stroke="#00ffff" stroke-width="2" points="557.5,-299 551.5,-299 "/>
<text text-anchor="middle" x="502" y="-290.2" font-family="Courier New" font-size="11.00" fill="#00ffff">Enter on a row</text>
<text text-anchor="middle" x="502" y="-278.2" font-family="Courier New" font-size="11.00" fill="#00ffff">→ queue paper</text>
</g>
<!-- t2&#45;&gt;select -->
<g id="edge3" class="edge">
<title>t2&#45;&gt;select</title>
<path fill="none" stroke="#00ffff" stroke-width="2" stroke-dasharray="5,2" d="M302.85,-355.91C345.09,-341.51 400.73,-322.53 442.47,-308.3"/>
<polygon fill="#00ffff" stroke="#00ffff" stroke-width="2" points="443.62,-311.61 451.95,-305.07 441.36,-304.98 443.62,-311.61"/>
</g>
<!-- t4 -->
<g id="node5" class="node">
<title>t4</title>
<polygon fill="#0a0a0a" stroke="#ff6600" stroke-width="2" points="337.5,-218 212.5,-218 212.5,-174 337.5,-174 337.5,-218"/>
<text text-anchor="middle" x="275" y="-205.2" font-family="Courier New" font-size="11.00" fill="#ff6600">④ Run</text>
<text text-anchor="middle" x="275" y="-193.2" font-family="Courier New" font-size="11.00" fill="#ff6600">spawn subprocess</text>
<text text-anchor="middle" x="275" y="-181.2" font-family="Courier New" font-size="11.00" fill="#ff6600">live colour log</text>
</g>
<!-- t3&#45;&gt;t4 -->
<g id="edge5" class="edge">
<title>t3&#45;&gt;t4</title>
<path fill="none" stroke="#ffff00" stroke-width="2" d="M229.37,-264.84C226.93,-255.65 225.91,-244.96 230,-236 231.64,-232.4 233.8,-229 236.28,-225.83"/>
<polygon fill="#ffff00" stroke="#ffff00" stroke-width="2" points="238.88,-228.18 243.01,-218.42 233.7,-223.47 238.88,-228.18"/>
<text text-anchor="middle" x="245.5" y="-239" font-family="Courier New" font-size="10.00">Enter</text>
</g>
<!-- t3&#45;&gt;t4 -->
<g id="edge11" class="edge">
<title>t3&#45;&gt;t4</title>
<path fill="none" stroke="#555555" stroke-width="2" stroke-dasharray="5,2" d="M251.93,-264.66C255.2,-259.06 258.47,-252.93 261,-247 263.55,-241.01 265.78,-234.43 267.66,-228.06"/>
<polygon fill="#555555" stroke="#555555" stroke-width="2" points="271.05,-228.91 270.33,-218.34 264.3,-227.05 271.05,-228.91"/>
<text text-anchor="middle" x="274.5" y="-239" font-family="Courier New" font-size="10.00">Tab</text>
</g>
<!-- t5 -->
<g id="node6" class="node">
<title>t5</title>
<polygon fill="#0a0a0a" stroke="#da70ff" stroke-width="2" points="234,-127 116,-127 116,-91 234,-91 234,-127"/>
<text text-anchor="middle" x="175" y="-112.2" font-family="Courier New" font-size="11.00" fill="#da70ff">⑤ Help</text>
<text text-anchor="middle" x="175" y="-100.2" font-family="Courier New" font-size="11.00" fill="#da70ff">keybindings ref</text>
</g>
<!-- t4&#45;&gt;t5 -->
<g id="edge12" class="edge">
<title>t4&#45;&gt;t5</title>
<path fill="none" stroke="#555555" stroke-width="2" stroke-dasharray="5,2" d="M250.28,-173.99C235.93,-161.79 217.82,-146.39 202.95,-133.76"/>
<polygon fill="#555555" stroke="#555555" stroke-width="2" points="204.96,-130.87 195.07,-127.06 200.43,-136.21 204.96,-130.87"/>
<text text-anchor="middle" x="236.5" y="-148" font-family="Courier New" font-size="10.00">Tab</text>
</g>
<!-- subproc -->
<g id="node8" class="node">
<title>subproc</title>
<polygon fill="#0a0a0a" stroke="#ff0055" stroke-width="2" points="538.5,-127 353.5,-127 353.5,-123 349.5,-123 349.5,-119 353.5,-119 353.5,-99 349.5,-99 349.5,-95 353.5,-95 353.5,-91 538.5,-91 538.5,-127"/>
<polyline fill="none" stroke="#ff0055" stroke-width="2" points="353.5,-123 357.5,-123 357.5,-119 353.5,-119 "/>
<polyline fill="none" stroke="#ff0055" stroke-width="2" points="353.5,-99 357.5,-99 357.5,-95 353.5,-95 "/>
<text text-anchor="middle" x="446" y="-112.2" font-family="Courier New" font-size="11.00" fill="#ff0055">python paper_processor.py</text>
<text text-anchor="middle" x="446" y="-100.2" font-family="Courier New" font-size="11.00" fill="#ff0055">(stdout piped via mpsc)</text>
</g>
<!-- t4&#45;&gt;subproc -->
<g id="edge6" class="edge">
<title>t4&#45;&gt;subproc</title>
<path fill="none" stroke="#ff0055" stroke-width="3" d="M317.27,-173.99C343.17,-161.12 376.24,-144.67 402.38,-131.68"/>
<polygon fill="#ff0055" stroke="#ff0055" stroke-width="3" points="404.28,-134.65 411.68,-127.06 401.16,-128.38 404.28,-134.65"/>
<text text-anchor="middle" x="373.5" y="-148" font-family="Courier New" font-size="10.00" fill="#ff0055">L</text>
</g>
<!-- t4&#45;&gt;subproc -->
<g id="edge8" class="edge">
<title>t4&#45;&gt;subproc</title>
<path fill="none" stroke="#ff0055" stroke-width="2" stroke-dasharray="5,2" d="M337.56,-175.09C352.14,-169.6 367.38,-163.17 381,-156 394.84,-148.72 409.14,-138.89 420.79,-130.19"/>
<polygon fill="#ff0055" stroke="#ff0055" stroke-width="2" points="421.14,-123.66 427.17,-131.64 425.58,-132.84 419.55,-124.86 421.14,-123.66"/>
<polyline fill="none" stroke="#ff0055" stroke-width="2" points="424.96,-127.04 420.97,-130.06 "/>
<text text-anchor="middle" x="421.5" y="-148" font-family="Courier New" font-size="10.00">X = kill</text>
</g>
<!-- t5&#45;&gt;t1 -->
<g id="edge13" class="edge">
<title>t5&#45;&gt;t1</title>
<path fill="none" stroke="#555555" stroke-width="2" stroke-dasharray="5,2" d="M146.6,-127.16C125.73,-142.16 101,-166.04 101,-195 101,-379 101,-379 101,-379 101,-410.32 126.26,-431.09 155.31,-444.62"/>
<polygon fill="#555555" stroke="#555555" stroke-width="2" points="154.29,-447.99 164.85,-448.76 157.08,-441.57 154.29,-447.99"/>
<text text-anchor="middle" x="110.5" y="-284.5" font-family="Courier New" font-size="10.00">Tab</text>
</g>
<!-- logs -->
<g id="node9" class="node">
<title>logs</title>
<polygon fill="#0a0a0a" stroke="#ff6600" stroke-width="2" points="505.5,-44 380.5,-44 380.5,0 511.5,0 511.5,-38 505.5,-44"/>
<polyline fill="none" stroke="#ff6600" stroke-width="2" points="505.5,-44 505.5,-38 "/>
<polyline fill="none" stroke="#ff6600" stroke-width="2" points="511.5,-38 505.5,-38 "/>
<text text-anchor="middle" x="446" y="-31.2" font-family="Courier New" font-size="11.00" fill="#ff6600">log pane</text>
<text text-anchor="middle" x="446" y="-19.2" font-family="Courier New" font-size="11.00" fill="#ff6600">emoji&#45;highlighted</text>
<text text-anchor="middle" x="446" y="-7.2" font-family="Courier New" font-size="11.00" fill="#ff6600">autoscroll · kill</text>
</g>
<!-- subproc&#45;&gt;logs -->
<g id="edge7" class="edge">
<title>subproc&#45;&gt;logs</title>
<path fill="none" stroke="#ff6600" stroke-width="2" d="M446,-90.8C446,-80.37 446,-66.74 446,-54.44"/>
<polygon fill="#ff6600" stroke="#ff6600" stroke-width="2" points="449.5,-54.09 446,-44.09 442.5,-54.09 449.5,-54.09"/>
<text text-anchor="middle" x="464.5" y="-65" font-family="Courier New" font-size="10.00" fill="#ff6600">stream</text>
</g>
<!-- select&#45;&gt;t3 -->
<g id="edge4" class="edge">
<title>select&#45;&gt;t3</title>
<path fill="none" stroke="#00ffff" stroke-width="2" stroke-dasharray="5,2" d="M446.45,-287C417.91,-287 382.09,-287 348.24,-287"/>
<polygon fill="#00ffff" stroke="#00ffff" stroke-width="2" points="347.81,-283.5 337.81,-287 347.81,-290.5 347.81,-283.5"/>
<text text-anchor="middle" x="392" y="-293" font-family="Courier New" font-size="10.00" fill="#00ffff">prefill &#45;&#45;paper</text>
</g>
</g>
</svg>
