<?xml version="1.0" encoding="UTF-8" standalone="no"?>
<!DOCTYPE svg PUBLIC "-//W3C//DTD SVG 1.1//EN"
 "http://www.w3.org/Graphics/SVG/1.1/DTD/svg11.dtd">
<!-- Generated by graphviz version 2.43.0 (0)
 -->
<!-- Title: G Pages: 1 -->
<svg width="596pt" height="490pt"
 viewBox="0.00 0.00 596.00 490.42" xmlns="http://www.w3.org/2000/svg" xmlns:xlink="http://www.w3.org/1999/xlink">
<g id="graph0" class="graph" transform="scale(1 1) rotate(0) translate(4 486.42)">
<title>G</title>
<polygon fill="#0a0a0a" stroke="transparent" points="-4,4 -4,-486.42 592,-486.42 592,4 -4,4"/>
<text text-anchor="middle" x="294" y="-467.22" font-family="Courier New" font-size="14.00" fill="#00ffff">Optimized Dual&#45;GPU Residency Architecture (Final)</text>
<g id="clust1" class="cluster">
<title>cluster_gpu0</title>
<polygon fill="#0a0a0a" stroke="#00ff41" points="8,-8 8,-277.25 274,-277.25 274,-8 8,-8"/>
<text text-anchor="middle" x="141" y="-262.05" font-family="Courier New" font-size="14.00" fill="#00ff41">GPU 0 (RTX 3080 10GB)</text>
<text text-anchor="middle" x="141" y="-247.05" font-family="Courier New" font-size="14.00" fill="#00ff41">8k Context Cap</text>
</g>
<g id="clust2" class="cluster">
<title>cluster_gpu1</title>
<polygon fill="#0a0a0a" stroke="#ffff00" points="282,-8 282,-277.25 580,-277.25 580,-8 282,-8"/>
<text text-anchor="middle" x="431" y="-262.05" font-family="Courier New" font-size="14.00" fill="#ffff00">GPU 1 (RTX 5080 16GB)</text>
<text text-anchor="middle" x="431" y="-247.05" font-family="Courier New" font-size="14.00" fill="#ffff00">32k Context enabled</text>
</g>
<!-- ollama0 -->
<g id="node1" class="node">
<title>ollama0</title>
<polygon fill="#1a1a1a" stroke="#00ff41" points="252,-231.25 120,-231.25 120,-178.25 252,-178.25 252,-231.25"/>
<text text-anchor="middle" x="186" y="-216.05" font-family="Courier New" font-size="14.00" fill="#00ffff">Ollama Backend</text>
<text text-anchor="middle" x="186" y="-201.05" font-family="Courier New" font-size="14.00" fill="#00ffff">Port 11434</text>
<text text-anchor="middle" x="186" y="-186.05" font-family="Courier New" font-size="14.00" fill="#00ffff">Parallel=1</text>
</g>
<!-- m0_residency -->
<g id="node2" class="node">
<title>m0_residency</title>
<path fill="#002200" stroke="#00ffff" d="M266,-136.6C266,-139.24 223.42,-141.38 171,-141.38 118.58,-141.38 76,-139.24 76,-136.6 76,-136.6 76,-93.65 76,-93.65 76,-91.01 118.58,-88.87 171,-88.87 223.42,-88.87 266,-91.01 266,-93.65 266,-93.65 266,-136.6 266,-136.6"/>
<path fill="none" stroke="#00ffff" d="M266,-136.6C266,-133.97 223.42,-131.83 171,-131.83 118.58,-131.83 76,-133.97 76,-136.6"/>
<text text-anchor="middle" x="171" y="-118.92" font-family="Courier New" font-size="14.00" fill="#00ffff">Multi&#45;Model Residency</text>
<text text-anchor="middle" x="171" y="-103.92" font-family="Courier New" font-size="14.00" fill="#00ffff">(Total ~8.6GB)</text>
</g>
<!-- ollama0&#45;&gt;m0_residency -->
<g id="edge1" class="edge">
<title>ollama0&#45;&gt;m0_residency</title>
<path fill="none" stroke="#ff00ff" stroke-width="2" d="M181.58,-177.93C180.16,-169.66 178.57,-160.35 177.06,-151.52"/>
<polygon fill="#ff00ff" stroke="#ff00ff" stroke-width="2" points="180.47,-150.72 175.34,-141.46 173.57,-151.9 180.47,-150.72"/>
</g>
<!-- m0_reason -->
<g id="node3" class="node">
<title>m0_reason</title>
<polygon fill="#003300" stroke="#00ffff" points="148,-52 16,-52 16,-16 148,-16 148,-52"/>
<text text-anchor="middle" x="82" y="-30.3" font-family="Courier New" font-size="14.00" fill="#00ffff">deepseek&#45;r1:8b</text>
</g>
<!-- m0_residency&#45;&gt;m0_reason -->
<g id="edge2" class="edge">
<title>m0_residency&#45;&gt;m0_reason</title>
<path fill="none" stroke="#ff00ff" stroke-width="2" d="M142.35,-88.65C131.66,-79.15 119.57,-68.4 109.03,-59.03"/>
<polygon fill="#ff00ff" stroke="#ff00ff" stroke-width="2" points="111.12,-56.2 101.32,-52.18 106.47,-61.44 111.12,-56.2"/>
</g>
<!-- m0_code -->
<g id="node4" class="node">
<title>m0_code</title>
<polygon fill="#003300" stroke="#00ffff" points="265.5,-52 166.5,-52 166.5,-16 265.5,-16 265.5,-52"/>
<text text-anchor="middle" x="216" y="-30.3" font-family="Courier New" font-size="14.00" fill="#00ffff">qwen3.5:4b</text>
</g>
<!-- m0_residency&#45;&gt;m0_code -->
<g id="edge3" class="edge">
<title>m0_residency&#45;&gt;m0_code</title>
<path fill="none" stroke="#ff00ff" stroke-width="2" d="M185.49,-88.65C190.52,-79.8 196.17,-69.87 201.23,-60.98"/>
<polygon fill="#ff00ff" stroke="#ff00ff" stroke-width="2" points="204.33,-62.6 206.23,-52.18 198.25,-59.14 204.33,-62.6"/>
</g>
<!-- ollama1 -->
<g id="node5" class="node">
<title>ollama1</title>
<polygon fill="#1a1a1a" stroke="#ffff00" points="436,-231.25 304,-231.25 304,-178.25 436,-178.25 436,-231.25"/>
<text text-anchor="middle" x="370" y="-216.05" font-family="Courier New" font-size="14.00" fill="#00ffff">Ollama Backend</text>
<text text-anchor="middle" x="370" y="-201.05" font-family="Courier New" font-size="14.00" fill="#00ffff">Port 11435</text>
<text text-anchor="middle" x="370" y="-186.05" font-family="Courier New" font-size="14.00" fill="#00ffff">Parallel=2</text>
</g>
<!-- m1_residency -->
<g id="node6" class="node">
<title>m1_residency</title>
<path fill="#222200" stroke="#00ffff" d="M480,-136.6C480,-139.24 437.42,-141.38 385,-141.38 332.58,-141.38 290,-139.24 290,-136.6 290,-136.6 290,-93.65 290,-93.65 290,-91.01 332.58,-88.87 385,-88.87 437.42,-88.87 480,-91.01 480,-93.65 480,-93.65 480,-136.6 480,-136.6"/>
<path fill="none" stroke="#00ffff" d="M480,-136.6C480,-133.97 437.42,-131.83 385,-131.83 332.58,-131.83 290,-133.97 290,-136.6"/>
<text text-anchor="middle" x="385" y="-118.92" font-family="Courier New" font-size="14.00" fill="#00ffff">Multi&#45;Model Residency</text>
<text text-anchor="middle" x="385" y="-103.92" font-family="Courier New" font-size="14.00" fill="#00ffff">(Total ~12.7GB)</text>
</g>
<!-- ollama1&#45;&gt;m1_residency -->
<g id="edge4" class="edge">
<title>ollama1&#45;&gt;m1_residency</title>
<path fill="none" stroke="#ff00ff" stroke-width="2" d="M374.42,-177.93C375.84,-169.66 377.43,-160.35 378.94,-151.52"/>
<polygon fill="#ff00ff" stroke="#ff00ff" stroke-width="2" points="382.43,-151.9 380.66,-141.46 375.53,-150.72 382.43,-151.9"/>
</g>
<!-- m1_reason -->
<g id="node7" class="node">
<title>m1_reason</title>
<polygon fill="#333300" stroke="#00ffff" points="422,-52 290,-52 290,-16 422,-16 422,-52"/>
<text text-anchor="middle" x="356" y="-30.3" font-family="Courier New" font-size="14.00" fill="#00ffff">deepseek&#45;r1:8b</text>
</g>
<!-- m1_residency&#45;&gt;m1_reason -->
<g id="edge5" class="edge">
<title>m1_residency&#45;&gt;m1_reason</title>
<path fill="none" stroke="#ff00ff" stroke-width="2" d="M375.66,-88.65C372.52,-80.08 369.01,-70.49 365.83,-61.82"/>
<polygon fill="#ff00ff" stroke="#ff00ff" stroke-width="2" points="369.02,-60.36 362.29,-52.18 362.45,-62.77 369.02,-60.36"/>
</g>
<!-- m1_code -->
<g id="node8" class="node">
<title>m1_code</title>
<polygon fill="#333300" stroke="#00ffff" points="572,-52 440,-52 440,-16 572,-16 572,-52"/>
<text text-anchor="middle" x="506" y="-30.3" font-family="Courier New" font-size="14.00" fill="#00ffff">ministral&#45;3:8b</text>
</g>
<!-- m1_residency&#45;&gt;m1_code -->
<g id="edge6" class="edge">
<title>m1_residency&#45;&gt;m1_code</title>
<path fill="none" stroke="#ff00ff" stroke-width="2" d="M423.62,-88.87C439,-78.82 456.56,-67.33 471.5,-57.56"/>
<polygon fill="#ff00ff" stroke="#ff00ff" stroke-width="2" points="473.51,-60.43 479.96,-52.03 469.68,-54.57 473.51,-60.43"/>
</g>
<!-- PP -->
<g id="node9" class="node">
<title>PP</title>
<polygon fill="#330033" stroke="#ff00ff" points="405.32,-414.26 405.32,-438.41 334.84,-455.49 235.16,-455.49 164.68,-438.41 164.68,-414.26 235.16,-397.18 334.84,-397.18 405.32,-414.26"/>
<polygon fill="none" stroke="#ff00ff" points="409.33,-411.1 409.33,-441.57 335.32,-459.5 234.68,-459.5 160.67,-441.57 160.67,-411.1 234.68,-393.17 335.32,-393.17 409.33,-411.1"/>
<text text-anchor="middle" x="285" y="-430.13" font-family="Courier New" font-size="14.00" fill="#00ffff">PaperProcessor.py</text>
<text text-anchor="middle" x="285" y="-415.13" font-family="Courier New" font-size="14.00" fill="#00ffff">(Fork)</text>
</g>
<!-- W0 -->
<g id="node10" class="node">
<title>W0</title>
<polygon fill="#1a1a1a" stroke="#00ff41" points="277,-356.25 137,-356.25 137,-318.25 277,-318.25 277,-356.25"/>
<text text-anchor="middle" x="207" y="-341.05" font-family="Courier New" font-size="14.00" fill="#00ffff">Worker 1</text>
<text text-anchor="middle" x="207" y="-326.05" font-family="Courier New" font-size="14.00" fill="#00ffff">(Pinned: GPU 0)</text>
</g>
<!-- PP&#45;&gt;W0 -->
<g id="edge7" class="edge">
<title>PP&#45;&gt;W0</title>
<path fill="none" stroke="#ff00ff" stroke-width="2" d="M255.96,-392.91C247.38,-383.33 238.12,-372.99 229.98,-363.9"/>
<polygon fill="#ff00ff" stroke="#ff00ff" stroke-width="2" points="232.44,-361.41 223.16,-356.29 227.23,-366.08 232.44,-361.41"/>
</g>
<!-- W1 -->
<g id="node11" class="node">
<title>W1</title>
<polygon fill="#1a1a1a" stroke="#ffff00" points="438,-356.25 298,-356.25 298,-318.25 438,-318.25 438,-356.25"/>
<text text-anchor="middle" x="368" y="-341.05" font-family="Courier New" font-size="14.00" fill="#00ffff">Worker 2</text>
<text text-anchor="middle" x="368" y="-326.05" font-family="Courier New" font-size="14.00" fill="#00ffff">(Pinned: GPU 1)</text>
</g>
<!-- PP&#45;&gt;W1 -->
<g id="edge8" class="edge">
<title>PP&#45;&gt;W1</title>
<path fill="none" stroke="#ff00ff" stroke-width="2" d="M315.91,-392.91C325.12,-383.24 335.09,-372.78 343.81,-363.63"/>
<polygon fill="#ff00ff" stroke="#ff00ff" stroke-width="2" points="346.44,-365.95 350.8,-356.29 341.37,-361.12 346.44,-365.95"/>
</g>
<!-- W0&#45;&gt;ollama0 -->
<g id="edge9" class="edge">
<title>W0&#45;&gt;ollama0</title>
<path fill="none" stroke="#ff00ff" stroke-width="2" d="M204.08,-318.1C200.9,-298.37 195.75,-266.33 191.75,-241.51"/>
<polygon fill="#ff00ff" stroke="#ff00ff" stroke-width="2" points="195.17,-240.68 190.12,-231.37 188.26,-241.8 195.17,-240.68"/>
<text text-anchor="middle" x="230.5" y="-289.05" font-family="Times,serif" font-size="14.00">Port 11434</text>
</g>
<!-- W1&#45;&gt;ollama1 -->
<g id="edge10" class="edge">
<title>W1&#45;&gt;ollama1</title>
<path fill="none" stroke="#ff00ff" stroke-width="2" d="M368.28,-318.1C368.58,-298.37 369.07,-266.33 369.45,-241.51"/>
<polygon fill="#ff00ff" stroke="#ff00ff" stroke-width="2" points="372.95,-241.42 369.61,-231.37 365.95,-241.31 372.95,-241.42"/>
<text text-anchor="middle" x="398.5" y="-289.05" font-family="Times,serif" font-size="14.00">Port 11435</text>
</g>
</g>
</svg>
