<?xml version="1.0" encoding="UTF-8" standalone="no"?>
<!DOCTYPE svg PUBLIC "-//W3C//DTD SVG 1.1//EN"
 "http://www.w3.org/Graphics/SVG/1.1/DTD/svg11.dtd">
<!-- Generated by graphviz version 2.43.0 (0)
 -->
<!-- Title: HowTo Pages: 1 -->
<svg width="2877pt" height="255pt"
 viewBox="0.00 0.00 2876.83 255.00" xmlns="http://www.w3.org/2000/svg" xmlns:xlink="http://www.w3.org/1999/xlink">
<g id="graph0" class="graph" transform="scale(1 1) rotate(0) translate(36 219)">
<title>HowTo</title>
<polygon fill="white" stroke="transparent" points="-36,36 -36,-219 2840.83,-219 2840.83,36 -36,36"/>
<text text-anchor="middle" x="1402.41" y="-168.6" font-family="Helvetica,sans-Serif" font-size="13.00">GPU Thermal Management — How&#45;To Workflow</text>
<text text-anchor="middle" x="1402.41" y="-154.6" font-family="Helvetica,sans-Serif" font-size="13.00">worlock · 2026&#45;05&#45;10</text>
<!-- START -->
<g id="node1" class="node">
<title>START</title>
<ellipse fill="#1a1a2e" stroke="black" cx="89.1" cy="-54" rx="89.19" ry="41.02"/>
<text text-anchor="middle" x="89.1" y="-63.2" font-family="Helvetica,sans-Serif" font-size="11.00" fill="white">Start:</text>
<text text-anchor="middle" x="89.1" y="-51.2" font-family="Helvetica,sans-Serif" font-size="11.00" fill="white">Check GPU</text>
<text text-anchor="middle" x="89.1" y="-39.2" font-family="Helvetica,sans-Serif" font-size="11.00" fill="white">Thermal Support</text>
</g>
<!-- DEC1 -->
<g id="node2" class="node">
<title>DEC1</title>
<polygon fill="#f5a623" stroke="black" points="451.19,-100 214.19,-54 451.19,-8 688.19,-54 451.19,-100"/>
<text text-anchor="middle" x="451.19" y="-57.2" font-family="Helvetica,sans-Serif" font-size="11.00" fill="#1a1a2e">&#45;gtt supported?</text>
<text text-anchor="middle" x="451.19" y="-45.2" font-family="Helvetica,sans-Serif" font-size="11.00" fill="#1a1a2e">(SUPPORTED_GPU_TARGET_TEMP)</text>
</g>
<!-- START&#45;&gt;DEC1 -->
<g id="edge1" class="edge">
<title>START&#45;&gt;DEC1</title>
<path fill="none" stroke="#444444" d="M178.65,-54C186.73,-54 195.15,-54 203.8,-54"/>
<polygon fill="#444444" stroke="#444444" points="204.07,-57.5 214.07,-54 204.07,-50.5 204.07,-57.5"/>
</g>
<!-- GTT -->
<g id="node3" class="node">
<title>GTT</title>
<polygon fill="#0f3460" stroke="black" points="1022.69,-110 878.69,-110 878.69,-64 1022.69,-64 1022.69,-110"/>
<text text-anchor="middle" x="950.69" y="-90.2" font-family="Helvetica,sans-Serif" font-size="11.00" fill="white">Set Target Temp</text>
<text text-anchor="middle" x="950.69" y="-78.2" font-family="Helvetica,sans-Serif" font-size="11.00" fill="white">nvidia&#45;smi &#45;i 1 &#45;gtt 70</text>
</g>
<!-- DEC1&#45;&gt;GTT -->
<g id="edge2" class="edge">
<title>DEC1&#45;&gt;GTT</title>
<path fill="none" stroke="#4caf50" d="M628.29,-65.68C710.14,-71.11 803.5,-77.3 868.43,-81.61"/>
<polygon fill="#4caf50" stroke="#4caf50" points="868.39,-85.11 878.6,-82.28 868.85,-78.13 868.39,-85.11"/>
<text text-anchor="middle" x="724.83" y="-66.07" font-family="Helvetica,sans-Serif" font-size="10.00">Yes (Ampere)</text>
</g>
<!-- NOCAP -->
<g id="node4" class="node">
<title>NOCAP</title>
<polygon fill="#e94560" stroke="black" points="841.19,-52 724.19,-52 724.19,-6 841.19,-6 841.19,-52"/>
<text text-anchor="middle" x="782.69" y="-32.2" font-family="Helvetica,sans-Serif" font-size="11.00" fill="white">No &#45;gtt support</text>
<text text-anchor="middle" x="782.69" y="-20.2" font-family="Helvetica,sans-Serif" font-size="11.00" fill="white">(Blackwell)</text>
</g>
<!-- DEC1&#45;&gt;NOCAP -->
<g id="edge3" class="edge">
<title>DEC1&#45;&gt;NOCAP</title>
<path fill="none" stroke="#e94560" d="M622.25,-41.1C654.76,-38.63 687,-36.18 713.88,-34.14"/>
<polygon fill="#e94560" stroke="#e94560" points="714.21,-37.63 723.92,-33.38 713.68,-30.65 714.21,-37.63"/>
<text text-anchor="middle" x="705.07" y="-29.24" font-family="Helvetica,sans-Serif" font-size="10.00">No (Blackwell)</text>
</g>
<!-- VERIFY1 -->
<g id="node6" class="node">
<title>VERIFY1</title>
<polygon fill="#16213e" stroke="black" points="1192.19,-84 1060.19,-84 1060.19,-26 1192.19,-26 1192.19,-84"/>
<text text-anchor="middle" x="1126.19" y="-64.2" font-family="Helvetica,sans-Serif" font-size="11.00" fill="white">Verify Settings</text>
<text text-anchor="middle" x="1126.19" y="-52.2" font-family="Helvetica,sans-Serif" font-size="11.00" fill="white">nvidia&#45;smi query</text>
<text text-anchor="middle" x="1126.19" y="-40.2" font-family="Helvetica,sans-Serif" font-size="11.00" fill="white">temp + power.limit</text>
</g>
<!-- GTT&#45;&gt;VERIFY1 -->
<g id="edge5" class="edge">
<title>GTT&#45;&gt;VERIFY1</title>
<path fill="none" stroke="#444444" d="M1022.76,-73.89C1031.74,-72.24 1040.94,-70.54 1049.98,-68.87"/>
<polygon fill="#444444" stroke="#444444" points="1050.89,-72.26 1060.09,-67.01 1049.62,-65.38 1050.89,-72.26"/>
</g>
<!-- PLCAP -->
<g id="node5" class="node">
<title>PLCAP</title>
<polygon fill="#e94560" stroke="black" points="1024.19,-46 877.19,-46 877.19,0 1024.19,0 1024.19,-46"/>
<text text-anchor="middle" x="950.69" y="-26.2" font-family="Helvetica,sans-Serif" font-size="11.00" fill="white">Set Power Cap</text>
<text text-anchor="middle" x="950.69" y="-14.2" font-family="Helvetica,sans-Serif" font-size="11.00" fill="white">nvidia&#45;smi &#45;i 0 &#45;pl 300</text>
</g>
<!-- NOCAP&#45;&gt;PLCAP -->
<g id="edge4" class="edge">
<title>NOCAP&#45;&gt;PLCAP</title>
<path fill="none" stroke="#444444" d="M841.28,-26.92C849.56,-26.62 858.21,-26.31 866.86,-25.99"/>
<polygon fill="#444444" stroke="#444444" points="867.13,-29.49 876.99,-25.63 866.87,-22.49 867.13,-29.49"/>
</g>
<!-- PLCAP&#45;&gt;VERIFY1 -->
<g id="edge6" class="edge">
<title>PLCAP&#45;&gt;VERIFY1</title>
<path fill="none" stroke="#444444" d="M1024.27,-36.39C1032.81,-37.96 1041.54,-39.57 1050.12,-41.15"/>
<polygon fill="#444444" stroke="#444444" points="1049.62,-44.62 1060.09,-42.99 1050.89,-37.74 1049.62,-44.62"/>
</g>
<!-- SCRIPT -->
<g id="node7" class="node">
<title>SCRIPT</title>
<polygon fill="#0f3460" stroke="black" points="1376.19,-84 1228.19,-84 1228.19,-26 1376.19,-26 1376.19,-84"/>
<text text-anchor="middle" x="1302.19" y="-64.2" font-family="Helvetica,sans-Serif" font-size="11.00" fill="white">Update</text>
<text text-anchor="middle" x="1302.19" y="-52.2" font-family="Helvetica,sans-Serif" font-size="11.00" fill="white">gpu_power_toggle.sh</text>
<text text-anchor="middle" x="1302.19" y="-40.2" font-family="Helvetica,sans-Serif" font-size="11.00" fill="white">eco + perf modes</text>
</g>
<!-- VERIFY1&#45;&gt;SCRIPT -->
<g id="edge7" class="edge">
<title>VERIFY1&#45;&gt;SCRIPT</title>
<path fill="none" stroke="#444444" d="M1192.48,-55C1200.7,-55 1209.21,-55 1217.67,-55"/>
<polygon fill="#444444" stroke="#444444" points="1217.94,-58.5 1227.94,-55 1217.94,-51.5 1217.94,-58.5"/>
</g>
<!-- WD -->
<g id="node8" class="node">
<title>WD</title>
<polygon fill="#0f3460" stroke="black" points="1583.19,-121 1412.19,-121 1412.19,-63 1583.19,-63 1583.19,-121"/>
<text text-anchor="middle" x="1497.69" y="-101.2" font-family="Helvetica,sans-Serif" font-size="11.00" fill="white">Inspect</text>
<text text-anchor="middle" x="1497.69" y="-89.2" font-family="Helvetica,sans-Serif" font-size="11.00" fill="white">gpu&#45;watchdog logs</text>
<text text-anchor="middle" x="1497.69" y="-77.2" font-family="Helvetica,sans-Serif" font-size="11.00" fill="white">journalctl &#45;u gpu&#45;watchdog</text>
</g>
<!-- SCRIPT&#45;&gt;WD -->
<g id="edge8" class="edge">
<title>SCRIPT&#45;&gt;WD</title>
<path fill="none" stroke="#444444" d="M1376.34,-68.99C1384.73,-70.59 1393.37,-72.24 1401.98,-73.89"/>
<polygon fill="#444444" stroke="#444444" points="1401.59,-77.38 1412.07,-75.82 1402.9,-70.5 1401.59,-77.38"/>
</g>
<!-- WDDEC -->
<g id="node9" class="node">
<title>WDDEC</title>
<polygon fill="#f5a623" stroke="black" points="1742.19,-147 1619.19,-101 1742.19,-55 1865.19,-101 1742.19,-147"/>
<text text-anchor="middle" x="1742.19" y="-104.2" font-family="Helvetica,sans-Serif" font-size="11.00" fill="#1a1a2e">Watchdog</text>
<text text-anchor="middle" x="1742.19" y="-92.2" font-family="Helvetica,sans-Serif" font-size="11.00" fill="#1a1a2e">overriding caps?</text>
</g>
<!-- WD&#45;&gt;WDDEC -->
<g id="edge9" class="edge">
<title>WD&#45;&gt;WDDEC</title>
<path fill="none" stroke="#444444" d="M1583.51,-95.15C1595.24,-95.58 1607.48,-96.04 1619.73,-96.49"/>
<polygon fill="#444444" stroke="#444444" points="1619.88,-100 1630,-96.87 1620.14,-93 1619.88,-100"/>
</g>
<!-- WDFIX -->
<g id="node10" class="node">
<title>WDFIX</title>
<polygon fill="#e94560" stroke="black" points="2036.69,-58 1916.69,-58 1916.69,0 2036.69,0 2036.69,-58"/>
<text text-anchor="middle" x="1976.69" y="-38.2" font-family="Helvetica,sans-Serif" font-size="11.00" fill="white">Fix perf mode</text>
<text text-anchor="middle" x="1976.69" y="-26.2" font-family="Helvetica,sans-Serif" font-size="11.00" fill="white">power variables</text>
<text text-anchor="middle" x="1976.69" y="-14.2" font-family="Helvetica,sans-Serif" font-size="11.00" fill="white">in toggle script</text>
</g>
<!-- WDDEC&#45;&gt;WDFIX -->
<g id="edge10" class="edge">
<title>WDDEC&#45;&gt;WDFIX</title>
<path fill="none" stroke="#e94560" d="M1810.13,-80.27C1840.39,-70.9 1876.13,-59.83 1906.64,-50.38"/>
<polygon fill="#e94560" stroke="#e94560" points="1907.83,-53.68 1916.35,-47.38 1905.76,-46.99 1907.83,-53.68"/>
<text text-anchor="middle" x="1871.83" y="-55.8" font-family="Helvetica,sans-Serif" font-size="10.00">Yes</text>
</g>
<!-- PERSIST -->
<g id="node11" class="node">
<title>PERSIST</title>
<polygon fill="#1a1a2e" stroke="black" points="2052.19,-124 1901.19,-124 1901.19,-78 2052.19,-78 2052.19,-124"/>
<text text-anchor="middle" x="1976.69" y="-104.2" font-family="Helvetica,sans-Serif" font-size="11.00" fill="white">Persist via Systemd</text>
<text text-anchor="middle" x="1976.69" y="-92.2" font-family="Helvetica,sans-Serif" font-size="11.00" fill="white">gpu&#45;eco&#45;mode.service</text>
</g>
<!-- WDDEC&#45;&gt;PERSIST -->
<g id="edge11" class="edge">
<title>WDDEC&#45;&gt;PERSIST</title>
<path fill="none" stroke="#4caf50" d="M1865.23,-101C1873.88,-101 1882.49,-101 1890.86,-101"/>
<polygon fill="#4caf50" stroke="#4caf50" points="1890.95,-104.5 1900.95,-101 1890.95,-97.5 1890.95,-104.5"/>
<text text-anchor="middle" x="1876.45" y="-93" font-family="Helvetica,sans-Serif" font-size="10.00">No</text>
</g>
<!-- WDFIX&#45;&gt;SCRIPT -->
<g id="edge12" class="edge">
<title>WDFIX&#45;&gt;SCRIPT</title>
<path fill="none" stroke="#444444" d="M1916.25,-31.3C1796.13,-35.94 1524.27,-46.45 1386.53,-51.78"/>
<polygon fill="#444444" stroke="#444444" points="1386.3,-48.28 1376.44,-52.17 1386.57,-55.28 1386.3,-48.28"/>
</g>
<!-- RESTART -->
<g id="node12" class="node">
<title>RESTART</title>
<polygon fill="#0f3460" stroke="black" points="2239.19,-130 2088.19,-130 2088.19,-72 2239.19,-72 2239.19,-130"/>
<text text-anchor="middle" x="2163.69" y="-110.2" font-family="Helvetica,sans-Serif" font-size="11.00" fill="white">Restart Service</text>
<text text-anchor="middle" x="2163.69" y="-98.2" font-family="Helvetica,sans-Serif" font-size="11.00" fill="white">systemctl restart</text>
<text text-anchor="middle" x="2163.69" y="-86.2" font-family="Helvetica,sans-Serif" font-size="11.00" fill="white">gpu&#45;eco&#45;mode.service</text>
</g>
<!-- PERSIST&#45;&gt;RESTART -->
<g id="edge13" class="edge">
<title>PERSIST&#45;&gt;RESTART</title>
<path fill="none" stroke="#444444" d="M2052.4,-101C2060.75,-101 2069.29,-101 2077.74,-101"/>
<polygon fill="#444444" stroke="#444444" points="2078,-104.5 2088,-101 2078,-97.5 2078,-104.5"/>
</g>
<!-- VERIFY2 -->
<g id="node13" class="node">
<title>VERIFY2</title>
<polygon fill="#16213e" stroke="black" points="2410.19,-130 2275.19,-130 2275.19,-72 2410.19,-72 2410.19,-130"/>
<text text-anchor="middle" x="2342.69" y="-110.2" font-family="Helvetica,sans-Serif" font-size="11.00" fill="white">Verify Post&#45;Restart</text>
<text text-anchor="middle" x="2342.69" y="-98.2" font-family="Helvetica,sans-Serif" font-size="11.00" fill="white">temp · power.limit</text>
<text text-anchor="middle" x="2342.69" y="-86.2" font-family="Helvetica,sans-Serif" font-size="11.00" fill="white">target temp</text>
</g>
<!-- RESTART&#45;&gt;VERIFY2 -->
<g id="edge14" class="edge">
<title>RESTART&#45;&gt;VERIFY2</title>
<path fill="none" stroke="#444444" d="M2239.24,-101C2247.71,-101 2256.34,-101 2264.83,-101"/>
<polygon fill="#444444" stroke="#444444" points="2265.1,-104.5 2275.1,-101 2265.1,-97.5 2265.1,-104.5"/>
</g>
<!-- MONITOR -->
<g id="node14" class="node">
<title>MONITOR</title>
<polygon fill="#0f3460" stroke="black" points="2606.19,-130 2446.19,-130 2446.19,-72 2606.19,-72 2606.19,-130"/>
<text text-anchor="middle" x="2526.19" y="-110.2" font-family="Helvetica,sans-Serif" font-size="11.00" fill="white">Monitor Live</text>
<text text-anchor="middle" x="2526.19" y="-98.2" font-family="Helvetica,sans-Serif" font-size="11.00" fill="white">watch &#45;n 2 nvidia&#45;smi</text>
<text text-anchor="middle" x="2526.19" y="-86.2" font-family="Helvetica,sans-Serif" font-size="11.00" fill="white">or Claude Code monitor</text>
</g>
<!-- VERIFY2&#45;&gt;MONITOR -->
<g id="edge15" class="edge">
<title>VERIFY2&#45;&gt;MONITOR</title>
<path fill="none" stroke="#444444" d="M2410.24,-101C2418.61,-101 2427.26,-101 2435.91,-101"/>
<polygon fill="#444444" stroke="#444444" points="2436.02,-104.5 2446.02,-101 2436.02,-97.5 2436.02,-104.5"/>
</g>
<!-- DONE -->
<g id="node15" class="node">
<title>DONE</title>
<ellipse fill="#4caf50" stroke="black" cx="2723.51" cy="-101" rx="81.13" ry="32.55"/>
<text text-anchor="middle" x="2723.51" y="-104.2" font-family="Helvetica,sans-Serif" font-size="11.00" fill="white">Settings Active</text>
<text text-anchor="middle" x="2723.51" y="-92.2" font-family="Helvetica,sans-Serif" font-size="11.00" fill="white">&amp; Persistent</text>
</g>
<!-- MONITOR&#45;&gt;DONE -->
<g id="edge16" class="edge">
<title>MONITOR&#45;&gt;DONE</title>
<path fill="none" stroke="#444444" d="M2606.35,-101C2614.7,-101 2623.23,-101 2631.69,-101"/>
<polygon fill="#444444" stroke="#444444" points="2631.96,-104.5 2641.96,-101 2631.96,-97.5 2631.96,-104.5"/>
</g>
</g>
</svg>
