<?xml version="1.0" encoding="UTF-8" standalone="no"?>
<!DOCTYPE svg PUBLIC "-//W3C//DTD SVG 1.1//EN"
 "http://www.w3.org/Graphics/SVG/1.1/DTD/svg11.dtd">
<!-- Generated by graphviz version 2.43.0 (0)
 -->
<!-- Title: LessonsLearned Pages: 1 -->
<svg width="1206pt" height="411pt"
 viewBox="0.00 0.00 1206.00 410.97" xmlns="http://www.w3.org/2000/svg" xmlns:xlink="http://www.w3.org/1999/xlink">
<g id="graph0" class="graph" transform="scale(1 1) rotate(0) translate(36 374.97)">
<title>LessonsLearned</title>
<polygon fill="white" stroke="transparent" points="-36,36 -36,-374.97 1170,-374.97 1170,36 -36,36"/>
<text text-anchor="middle" x="567" y="-324.57" font-family="Helvetica,sans-Serif" font-size="13.00">GPU Thermal Management — Lessons Learned</text>
<text text-anchor="middle" x="567" y="-310.57" font-family="Helvetica,sans-Serif" font-size="13.00">worlock · 2026&#45;05&#45;10</text>
<!-- ROOT -->
<g id="node1" class="node">
<title>ROOT</title>
<polygon fill="#1a1a2e" stroke="black" points="764.82,-229.7 764.82,-270.27 694.34,-298.95 594.66,-298.95 524.18,-270.27 524.18,-229.7 594.66,-201.02 694.34,-201.02 764.82,-229.7"/>
<polygon fill="none" stroke="black" points="768.83,-227.01 768.83,-272.95 695.12,-302.95 593.88,-302.95 520.17,-272.95 520.17,-227.01 593.88,-197.02 695.12,-197.02 768.83,-227.01"/>
<text text-anchor="middle" x="644.5" y="-260.58" font-family="Helvetica,sans-Serif" font-size="13.00" fill="white">Dual&#45;GPU Thermal</text>
<text text-anchor="middle" x="644.5" y="-246.58" font-family="Helvetica,sans-Serif" font-size="13.00" fill="white">Management</text>
<text text-anchor="middle" x="644.5" y="-232.58" font-family="Helvetica,sans-Serif" font-size="13.00" fill="white">Lessons</text>
</g>
<!-- L1 -->
<g id="node2" class="node">
<title>L1</title>
<polygon fill="#e94560" stroke="black" points="312.5,-161 168.5,-161 168.5,-91 312.5,-91 312.5,-161"/>
<text text-anchor="middle" x="240.5" y="-141.2" font-family="Helvetica,sans-Serif" font-size="11.00" fill="white">1. Arch Differences</text>
<text text-anchor="middle" x="240.5" y="-129.2" font-family="Helvetica,sans-Serif" font-size="11.00" fill="white">Blackwell vs Ampere</text>
<text text-anchor="middle" x="240.5" y="-117.2" font-family="Helvetica,sans-Serif" font-size="11.00" fill="white">expose different</text>
<text text-anchor="middle" x="240.5" y="-105.2" font-family="Helvetica,sans-Serif" font-size="11.00" fill="white">thermal APIs</text>
</g>
<!-- ROOT&#45;&gt;L1 -->
<g id="edge1" class="edge">
<title>ROOT&#45;&gt;L1</title>
<path fill="none" stroke="black" d="M520.27,-267C401.53,-267 240.5,-267 240.5,-267 240.5,-267 240.5,-171.22 240.5,-171.22"/>
<polygon fill="black" stroke="black" points="244,-171.22 240.5,-161.22 237,-171.22 244,-171.22"/>
</g>
<!-- L2 -->
<g id="node3" class="node">
<title>L2</title>
<polygon fill="#e94560" stroke="black" points="475.5,-161 343.5,-161 343.5,-91 475.5,-91 475.5,-161"/>
<text text-anchor="middle" x="409.5" y="-141.2" font-family="Helvetica,sans-Serif" font-size="11.00" fill="white">2. Power Cap =</text>
<text text-anchor="middle" x="409.5" y="-129.2" font-family="Helvetica,sans-Serif" font-size="11.00" fill="white">Universal Fallback</text>
<text text-anchor="middle" x="409.5" y="-117.2" font-family="Helvetica,sans-Serif" font-size="11.00" fill="white">&#45;pl works when</text>
<text text-anchor="middle" x="409.5" y="-105.2" font-family="Helvetica,sans-Serif" font-size="11.00" fill="white">&#45;gtt does not</text>
</g>
<!-- ROOT&#45;&gt;L2 -->
<g id="edge2" class="edge">
<title>ROOT&#45;&gt;L2</title>
<path fill="none" stroke="black" d="M520.12,-232C463.75,-232 409.5,-232 409.5,-232 409.5,-232 409.5,-171 409.5,-171"/>
<polygon fill="black" stroke="black" points="413,-171 409.5,-161 406,-171 413,-171"/>
</g>
<!-- L3 -->
<g id="node4" class="node">
<title>L3</title>
<polygon fill="#f5a623" stroke="black" points="637,-161 494,-161 494,-91 637,-91 637,-161"/>
<text text-anchor="middle" x="565.5" y="-141.2" font-family="Helvetica,sans-Serif" font-size="11.00" fill="#1a1a2e">3. Watchdog Silently</text>
<text text-anchor="middle" x="565.5" y="-129.2" font-family="Helvetica,sans-Serif" font-size="11.00" fill="#1a1a2e">Lifts Power Limits</text>
<text text-anchor="middle" x="565.5" y="-117.2" font-family="Helvetica,sans-Serif" font-size="11.00" fill="#1a1a2e">perf mode resets</text>
<text text-anchor="middle" x="565.5" y="-105.2" font-family="Helvetica,sans-Serif" font-size="11.00" fill="#1a1a2e">caps under load</text>
</g>
<!-- ROOT&#45;&gt;L3 -->
<g id="edge3" class="edge">
<title>ROOT&#45;&gt;L3</title>
<path fill="none" stroke="black" d="M578.67,-203.11C578.67,-203.11 578.67,-171.34 578.67,-171.34"/>
<polygon fill="black" stroke="black" points="582.17,-171.34 578.67,-161.34 575.17,-171.34 582.17,-171.34"/>
</g>
<!-- L4 -->
<g id="node5" class="node">
<title>L4</title>
<polygon fill="#f5a623" stroke="black" points="792,-161 655,-161 655,-91 792,-91 792,-161"/>
<text text-anchor="middle" x="723.5" y="-141.2" font-family="Helvetica,sans-Serif" font-size="11.00" fill="#1a1a2e">4. Locked Clocks</text>
<text text-anchor="middle" x="723.5" y="-129.2" font-family="Helvetica,sans-Serif" font-size="11.00" fill="#1a1a2e">vs &#45;gtt Scaling</text>
<text text-anchor="middle" x="723.5" y="-117.2" font-family="Helvetica,sans-Serif" font-size="11.00" fill="#1a1a2e">eco mode locks out</text>
<text text-anchor="middle" x="723.5" y="-105.2" font-family="Helvetica,sans-Serif" font-size="11.00" fill="#1a1a2e">driver throttling</text>
</g>
<!-- ROOT&#45;&gt;L4 -->
<g id="edge4" class="edge">
<title>ROOT&#45;&gt;L4</title>
<path fill="none" stroke="black" d="M711.83,-203.46C711.83,-203.46 711.83,-171.15 711.83,-171.15"/>
<polygon fill="black" stroke="black" points="715.33,-171.15 711.83,-161.15 708.33,-171.15 715.33,-171.15"/>
</g>
<!-- L5 -->
<g id="node6" class="node">
<title>L5</title>
<polygon fill="#0f3460" stroke="black" points="977,-161 810,-161 810,-91 977,-91 977,-161"/>
<text text-anchor="middle" x="893.5" y="-141.2" font-family="Helvetica,sans-Serif" font-size="11.00" fill="white">5. Systemd Oneshot</text>
<text text-anchor="middle" x="893.5" y="-129.2" font-family="Helvetica,sans-Serif" font-size="11.00" fill="white">= Right Persistence</text>
<text text-anchor="middle" x="893.5" y="-117.2" font-family="Helvetica,sans-Serif" font-size="11.00" fill="white">After=nvidia&#45;persistenced</text>
<text text-anchor="middle" x="893.5" y="-105.2" font-family="Helvetica,sans-Serif" font-size="11.00" fill="white">RemainAfterExit=yes</text>
</g>
<!-- ROOT&#45;&gt;L5 -->
<g id="edge5" class="edge">
<title>ROOT&#45;&gt;L5</title>
<path fill="none" stroke="black" d="M769,-232C831.25,-232 893.5,-232 893.5,-232 893.5,-232 893.5,-171 893.5,-171"/>
<polygon fill="black" stroke="black" points="897,-171 893.5,-161 890,-171 897,-171"/>
</g>
<!-- L6 -->
<g id="node7" class="node">
<title>L6</title>
<polygon fill="#0f3460" stroke="black" points="1134,-161 995,-161 995,-91 1134,-91 1134,-161"/>
<text text-anchor="middle" x="1064.5" y="-141.2" font-family="Helvetica,sans-Serif" font-size="11.00" fill="white">6. Service Restart</text>
<text text-anchor="middle" x="1064.5" y="-129.2" font-family="Helvetica,sans-Serif" font-size="11.00" fill="white">≠ Manual Apply</text>
<text text-anchor="middle" x="1064.5" y="-117.2" font-family="Helvetica,sans-Serif" font-size="11.00" fill="white">both must be tested</text>
<text text-anchor="middle" x="1064.5" y="-105.2" font-family="Helvetica,sans-Serif" font-size="11.00" fill="white">independently</text>
</g>
<!-- ROOT&#45;&gt;L6 -->
<g id="edge6" class="edge">
<title>ROOT&#45;&gt;L6</title>
<path fill="none" stroke="black" d="M768.81,-267C892.66,-267 1064.5,-267 1064.5,-267 1064.5,-267 1064.5,-171.22 1064.5,-171.22"/>
<polygon fill="black" stroke="black" points="1068,-171.22 1064.5,-161.22 1061,-171.22 1068,-171.22"/>
</g>
<!-- D1a -->
<g id="node8" class="node">
<title>D1a</title>
<polygon fill="#fdecea" stroke="black" points="141,-55 0,-55 0,0 147,0 147,-49 141,-55"/>
<polyline fill="none" stroke="black" points="141,-55 141,-49 "/>
<polyline fill="none" stroke="black" points="147,-49 141,-49 "/>
<text text-anchor="middle" x="73.5" y="-36" font-family="Helvetica,sans-Serif" font-size="10.00">RTX 5080 (Blackwell)</text>
<text text-anchor="middle" x="73.5" y="-25" font-family="Helvetica,sans-Serif" font-size="10.00">GPU Target Temp: N/A</text>
<text text-anchor="middle" x="73.5" y="-14" font-family="Helvetica,sans-Serif" font-size="10.00">Min/Max: N/A</text>
</g>
<!-- L1&#45;&gt;D1a -->
<g id="edge7" class="edge">
<title>L1&#45;&gt;D1a</title>
<path fill="none" stroke="black" d="M168.22,-126C123.09,-126 73.5,-126 73.5,-126 73.5,-126 73.5,-65.2 73.5,-65.2"/>
<polygon fill="black" stroke="black" points="77,-65.2 73.5,-55.2 70,-65.2 77,-65.2"/>
</g>
<!-- D1b -->
<g id="node9" class="node">
<title>D1b</title>
<polygon fill="#e8f5e9" stroke="black" points="310,-55 165,-55 165,0 316,0 316,-49 310,-55"/>
<polyline fill="none" stroke="black" points="310,-55 310,-49 "/>
<polyline fill="none" stroke="black" points="316,-49 310,-49 "/>
<text text-anchor="middle" x="240.5" y="-36" font-family="Helvetica,sans-Serif" font-size="10.00">RTX 3080 (Ampere)</text>
<text text-anchor="middle" x="240.5" y="-25" font-family="Helvetica,sans-Serif" font-size="10.00">GPU Target Temp: 70°C</text>
<text text-anchor="middle" x="240.5" y="-14" font-family="Helvetica,sans-Serif" font-size="10.00">Range: 65–91°C</text>
</g>
<!-- L1&#45;&gt;D1b -->
<g id="edge8" class="edge">
<title>L1&#45;&gt;D1b</title>
<path fill="none" stroke="black" d="M240.5,-91C240.5,-91 240.5,-65.28 240.5,-65.28"/>
<polygon fill="black" stroke="black" points="244,-65.28 240.5,-55.28 237,-65.28 244,-65.28"/>
</g>
<!-- D2 -->
<g id="node10" class="node">
<title>D2</title>
<polygon fill="#fdecea" stroke="black" points="479,-55 334,-55 334,0 485,0 485,-49 479,-55"/>
<polyline fill="none" stroke="black" points="479,-55 479,-49 "/>
<polyline fill="none" stroke="black" points="485,-49 479,-49 "/>
<text text-anchor="middle" x="409.5" y="-36" font-family="Helvetica,sans-Serif" font-size="10.00">5080: 360W → 300W</text>
<text text-anchor="middle" x="409.5" y="-25" font-family="Helvetica,sans-Serif" font-size="10.00">held 66–70°C under load</text>
<text text-anchor="middle" x="409.5" y="-14" font-family="Helvetica,sans-Serif" font-size="10.00">no throttle events</text>
</g>
<!-- L2&#45;&gt;D2 -->
<g id="edge9" class="edge">
<title>L2&#45;&gt;D2</title>
<path fill="none" stroke="black" d="M409.5,-91C409.5,-91 409.5,-65.28 409.5,-65.28"/>
<polygon fill="black" stroke="black" points="413,-65.28 409.5,-55.28 406,-65.28 413,-65.28"/>
</g>
<!-- D3 -->
<g id="node11" class="node">
<title>D3</title>
<polygon fill="#fff8e1" stroke="black" points="653.5,-55 503.5,-55 503.5,0 659.5,0 659.5,-49 653.5,-55"/>
<polyline fill="none" stroke="black" points="653.5,-55 653.5,-49 "/>
<polyline fill="none" stroke="black" points="659.5,-49 653.5,-49 "/>
<text text-anchor="middle" x="581.5" y="-36" font-family="Helvetica,sans-Serif" font-size="10.00">gpu&#45;watchdog calls</text>
<text text-anchor="middle" x="581.5" y="-25" font-family="Helvetica,sans-Serif" font-size="10.00">gpu_power_toggle.sh perf</text>
<text text-anchor="middle" x="581.5" y="-14" font-family="Helvetica,sans-Serif" font-size="10.00">which reset &#45;pl to 360W</text>
</g>
<!-- L3&#45;&gt;D3 -->
<g id="edge10" class="edge">
<title>L3&#45;&gt;D3</title>
<path fill="none" stroke="black" d="M570.25,-91C570.25,-91 570.25,-65.28 570.25,-65.28"/>
<polygon fill="black" stroke="black" points="573.75,-65.28 570.25,-55.28 566.75,-65.28 573.75,-65.28"/>
</g>
<!-- D5 -->
<g id="node12" class="node">
<title>D5</title>
<polygon fill="#e3f2fd" stroke="black" points="958,-55 823,-55 823,0 964,0 964,-49 958,-55"/>
<polyline fill="none" stroke="black" points="958,-55 958,-49 "/>
<polyline fill="none" stroke="black" points="964,-49 958,-49 "/>
<text text-anchor="middle" x="893.5" y="-36" font-family="Helvetica,sans-Serif" font-size="10.00">gpu&#45;eco&#45;mode.service</text>
<text text-anchor="middle" x="893.5" y="-25" font-family="Helvetica,sans-Serif" font-size="10.00">runs at boot after</text>
<text text-anchor="middle" x="893.5" y="-14" font-family="Helvetica,sans-Serif" font-size="10.00">nvidia&#45;persistenced</text>
</g>
<!-- L5&#45;&gt;D5 -->
<g id="edge11" class="edge">
<title>L5&#45;&gt;D5</title>
<path fill="none" stroke="black" d="M893.5,-91C893.5,-91 893.5,-65.28 893.5,-65.28"/>
<polygon fill="black" stroke="black" points="897,-65.28 893.5,-55.28 890,-65.28 897,-65.28"/>
</g>
</g>
</svg>
