<?xml version="1.0" encoding="UTF-8" standalone="no"?>
<!DOCTYPE svg PUBLIC "-//W3C//DTD SVG 1.1//EN"
 "http://www.w3.org/Graphics/SVG/1.1/DTD/svg11.dtd">
<!-- Generated by graphviz version 2.43.0 (0)
 -->
<!-- Title: FutureDirections Pages: 1 -->
<svg width="1291pt" height="315pt"
 viewBox="0.00 0.00 1291.00 314.54" xmlns="http://www.w3.org/2000/svg" xmlns:xlink="http://www.w3.org/1999/xlink">
<g id="graph0" class="graph" transform="scale(1 1) rotate(0) translate(36 278.54)">
<title>FutureDirections</title>
<polygon fill="white" stroke="transparent" points="-36,36 -36,-278.54 1255,-278.54 1255,36 -36,36"/>
<text text-anchor="middle" x="609.5" y="-228.14" font-family="Helvetica,sans-Serif" font-size="13.00">GPU Thermal Management — Future Directions</text>
<text text-anchor="middle" x="609.5" y="-214.14" font-family="Helvetica,sans-Serif" font-size="13.00">worlock · 2026&#45;05&#45;10</text>
<g id="clust1" class="cluster">
<title>cluster_thermal</title>
<polygon fill="#fdecea" stroke="#e94560" points="8,-8 8,-114 335,-114 335,-8 8,-8"/>
<text text-anchor="middle" x="171.5" y="-101.2" font-family="Helvetica,sans-Serif" font-size="11.00" fill="#1a1a2e">Thermal Precision</text>
</g>
<g id="clust2" class="cluster">
<title>cluster_automation</title>
<polygon fill="#fff8e1" stroke="#f5a623" points="343,-8 343,-114 671,-114 671,-8 343,-8"/>
<text text-anchor="middle" x="507" y="-101.2" font-family="Helvetica,sans-Serif" font-size="11.00" fill="#1a1a2e">Automation &amp; Profiles</text>
</g>
<g id="clust3" class="cluster">
<title>cluster_observability</title>
<polygon fill="#e3f2fd" stroke="#0f3460" points="679,-8 679,-114 1025,-114 1025,-8 679,-8"/>
<text text-anchor="middle" x="852" y="-101.2" font-family="Helvetica,sans-Serif" font-size="11.00" fill="#1a1a2e">Observability &amp; Alerting</text>
</g>
<g id="clust4" class="cluster">
<title>cluster_validation</title>
<polygon fill="#e8f5e9" stroke="#4caf50" points="1033,-8 1033,-114 1211,-114 1211,-8 1033,-8"/>
<text text-anchor="middle" x="1122" y="-101.2" font-family="Helvetica,sans-Serif" font-size="11.00" fill="#1a1a2e">Validation</text>
</g>
<!-- ROOT -->
<g id="node1" class="node">
<title>ROOT</title>
<polygon fill="#1a1a2e" stroke="black" points="786.44,-148.5 786.44,-180.03 714.13,-202.33 611.87,-202.33 539.56,-180.03 539.56,-148.5 611.87,-126.21 714.13,-126.21 786.44,-148.5"/>
<polygon fill="none" stroke="black" points="790.45,-145.57 790.45,-182.96 714.74,-206.31 611.26,-206.31 535.55,-182.96 535.55,-145.57 611.26,-122.23 714.74,-122.23 790.45,-145.57"/>
<text text-anchor="middle" x="663" y="-167.87" font-family="Helvetica,sans-Serif" font-size="13.00" fill="white">Future Directions</text>
<text text-anchor="middle" x="663" y="-153.87" font-family="Helvetica,sans-Serif" font-size="13.00" fill="white">GPU Thermal Mgmt</text>
</g>
<!-- F1 -->
<g id="node2" class="node">
<title>F1</title>
<polygon fill="#e94560" stroke="black" points="164.5,-86 15.5,-86 15.5,-16 164.5,-16 164.5,-86"/>
<text text-anchor="middle" x="90" y="-66.2" font-family="Helvetica,sans-Serif" font-size="11.00" fill="white">1. Fan Curve Control</text>
<text text-anchor="middle" x="90" y="-54.2" font-family="Helvetica,sans-Serif" font-size="11.00" fill="white">RTX 5080 (Blackwell)</text>
<text text-anchor="middle" x="90" y="-42.2" font-family="Helvetica,sans-Serif" font-size="11.00" fill="white">nvidia&#45;settings +</text>
<text text-anchor="middle" x="90" y="-30.2" font-family="Helvetica,sans-Serif" font-size="11.00" fill="white">Xvfb virtual display</text>
</g>
<!-- ROOT&#45;&gt;F1 -->
<g id="edge1" class="edge">
<title>ROOT&#45;&gt;F1</title>
<path fill="none" stroke="black" d="M563.1,-137C404.99,-137 114.83,-137 114.83,-137 114.83,-137 114.83,-96.48 114.83,-96.48"/>
<polygon fill="black" stroke="black" points="118.33,-96.48 114.83,-86.48 111.33,-96.48 118.33,-96.48"/>
</g>
<!-- F5 -->
<g id="node3" class="node">
<title>F5</title>
<polygon fill="#e94560" stroke="black" points="327,-86 183,-86 183,-16 327,-16 327,-86"/>
<text text-anchor="middle" x="255" y="-66.2" font-family="Helvetica,sans-Serif" font-size="11.00" fill="white">5. Track Blackwell</text>
<text text-anchor="middle" x="255" y="-54.2" font-family="Helvetica,sans-Serif" font-size="11.00" fill="white">Driver Updates</text>
<text text-anchor="middle" x="255" y="-42.2" font-family="Helvetica,sans-Serif" font-size="11.00" fill="white">Re&#45;test &#45;gtt support</text>
<text text-anchor="middle" x="255" y="-30.2" font-family="Helvetica,sans-Serif" font-size="11.00" fill="white">after driver upgrades</text>
</g>
<!-- ROOT&#45;&gt;F5 -->
<g id="edge5" class="edge">
<title>ROOT&#45;&gt;F5</title>
<path fill="none" stroke="black" d="M579.34,-132C478.09,-132 321,-132 321,-132 321,-132 321,-96.29 321,-96.29"/>
<polygon fill="black" stroke="black" points="324.5,-96.29 321,-86.29 317.5,-96.29 324.5,-96.29"/>
</g>
<!-- F2 -->
<g id="node4" class="node">
<title>F2</title>
<polygon fill="#f5a623" stroke="black" points="489,-86 351,-86 351,-16 489,-16 489,-86"/>
<text text-anchor="middle" x="420" y="-66.2" font-family="Helvetica,sans-Serif" font-size="11.00" fill="#1a1a2e">2. Per&#45;Workload</text>
<text text-anchor="middle" x="420" y="-54.2" font-family="Helvetica,sans-Serif" font-size="11.00" fill="#1a1a2e">Power Profiles</text>
<text text-anchor="middle" x="420" y="-42.2" font-family="Helvetica,sans-Serif" font-size="11.00" fill="#1a1a2e">Inference · Training</text>
<text text-anchor="middle" x="420" y="-30.2" font-family="Helvetica,sans-Serif" font-size="11.00" fill="#1a1a2e">Idle tiers</text>
</g>
<!-- ROOT&#45;&gt;F2 -->
<g id="edge2" class="edge">
<title>ROOT&#45;&gt;F2</title>
<path fill="none" stroke="black" d="M595.79,-127C533.86,-127 451.5,-127 451.5,-127 451.5,-127 451.5,-96.33 451.5,-96.33"/>
<polygon fill="black" stroke="black" points="455,-96.33 451.5,-86.33 448,-96.33 455,-96.33"/>
</g>
<!-- F6 -->
<g id="node5" class="node">
<title>F6</title>
<polygon fill="#f5a623" stroke="black" points="663,-86 507,-86 507,-16 663,-16 663,-86"/>
<text text-anchor="middle" x="585" y="-66.2" font-family="Helvetica,sans-Serif" font-size="11.00" fill="#1a1a2e">6. Unified Dashboard</text>
<text text-anchor="middle" x="585" y="-54.2" font-family="Helvetica,sans-Serif" font-size="11.00" fill="#1a1a2e">Dual&#45;GPU side&#45;by&#45;side</text>
<text text-anchor="middle" x="585" y="-42.2" font-family="Helvetica,sans-Serif" font-size="11.00" fill="#1a1a2e">mode counters +</text>
<text text-anchor="middle" x="585" y="-30.2" font-family="Helvetica,sans-Serif" font-size="11.00" fill="#1a1a2e">throttle history</text>
</g>
<!-- ROOT&#45;&gt;F6 -->
<g id="edge6" class="edge">
<title>ROOT&#45;&gt;F6</title>
<path fill="none" stroke="black" d="M599.39,-125.6C599.39,-125.6 599.39,-96.07 599.39,-96.07"/>
<polygon fill="black" stroke="black" points="602.89,-96.07 599.39,-86.07 595.89,-96.07 602.89,-96.07"/>
</g>
<!-- F3 -->
<g id="node6" class="node">
<title>F3</title>
<polygon fill="#0f3460" stroke="black" points="1016.5,-86 853.5,-86 853.5,-16 1016.5,-16 1016.5,-86"/>
<text text-anchor="middle" x="935" y="-66.2" font-family="Helvetica,sans-Serif" font-size="11.00" fill="white">3. Temp&#45;Triggered</text>
<text text-anchor="middle" x="935" y="-54.2" font-family="Helvetica,sans-Serif" font-size="11.00" fill="white">Alerts</text>
<text text-anchor="middle" x="935" y="-42.2" font-family="Helvetica,sans-Serif" font-size="11.00" fill="white">wall / notify&#45;send</text>
<text text-anchor="middle" x="935" y="-30.2" font-family="Helvetica,sans-Serif" font-size="11.00" fill="white">or webhook on threshold</text>
</g>
<!-- ROOT&#45;&gt;F3 -->
<g id="edge3" class="edge">
<title>ROOT&#45;&gt;F3</title>
<path fill="none" stroke="black" d="M733.75,-128C808.91,-128 917,-128 917,-128 917,-128 917,-96.34 917,-96.34"/>
<polygon fill="black" stroke="black" points="920.5,-96.34 917,-86.34 913.5,-96.34 920.5,-96.34"/>
</g>
<!-- F4 -->
<g id="node7" class="node">
<title>F4</title>
<polygon fill="#0f3460" stroke="black" points="835.5,-86 686.5,-86 686.5,-16 835.5,-16 835.5,-86"/>
<text text-anchor="middle" x="761" y="-66.2" font-family="Helvetica,sans-Serif" font-size="11.00" fill="white">4. Netdata Integration</text>
<text text-anchor="middle" x="761" y="-54.2" font-family="Helvetica,sans-Serif" font-size="11.00" fill="white">GPU plugin already</text>
<text text-anchor="middle" x="761" y="-42.2" font-family="Helvetica,sans-Serif" font-size="11.00" fill="white">available on :19999</text>
<text text-anchor="middle" x="761" y="-30.2" font-family="Helvetica,sans-Serif" font-size="11.00" fill="white">health engine alerts</text>
</g>
<!-- ROOT&#45;&gt;F4 -->
<g id="edge4" class="edge">
<title>ROOT&#45;&gt;F4</title>
<path fill="none" stroke="black" d="M755.65,-134.8C755.65,-134.8 755.65,-96.37 755.65,-96.37"/>
<polygon fill="black" stroke="black" points="759.15,-96.37 755.65,-86.37 752.15,-96.37 759.15,-96.37"/>
</g>
<!-- F7 -->
<g id="node8" class="node">
<title>F7</title>
<polygon fill="#4caf50" stroke="black" points="1202.5,-86 1041.5,-86 1041.5,-16 1202.5,-16 1202.5,-86"/>
<text text-anchor="middle" x="1122" y="-66.2" font-family="Helvetica,sans-Serif" font-size="11.00" fill="white">7. Full Cold Reboot</text>
<text text-anchor="middle" x="1122" y="-54.2" font-family="Helvetica,sans-Serif" font-size="11.00" fill="white">Validation</text>
<text text-anchor="middle" x="1122" y="-42.2" font-family="Helvetica,sans-Serif" font-size="11.00" fill="white">Confirm 300W caps +</text>
<text text-anchor="middle" x="1122" y="-30.2" font-family="Helvetica,sans-Serif" font-size="11.00" fill="white">70°C target survive boot</text>
</g>
<!-- ROOT&#45;&gt;F7 -->
<g id="edge7" class="edge">
<title>ROOT&#45;&gt;F7</title>
<path fill="none" stroke="black" d="M756.37,-135C871.7,-135 1052.83,-135 1052.83,-135 1052.83,-135 1052.83,-96.14 1052.83,-96.14"/>
<polygon fill="black" stroke="black" points="1056.33,-96.14 1052.83,-86.14 1049.33,-96.14 1056.33,-96.14"/>
</g>
<!-- P_HIGH -->
<g id="node9" class="node">
<title>P_HIGH</title>
<polygon fill="#ffcdd2" stroke="black" points="1069.5,-186.27 980.5,-186.27 980.5,-142.27 1075.5,-142.27 1075.5,-180.27 1069.5,-186.27"/>
<polyline fill="none" stroke="black" points="1069.5,-186.27 1069.5,-180.27 "/>
<polyline fill="none" stroke="black" points="1075.5,-180.27 1069.5,-180.27 "/>
<text text-anchor="middle" x="1028" y="-167.27" font-family="Helvetica,sans-Serif" font-size="10.00">Near&#45;term</text>
<text text-anchor="middle" x="1028" y="-156.27" font-family="Helvetica,sans-Serif" font-size="10.00">(high value)</text>
</g>
<!-- P_HIGH&#45;&gt;F3 -->
<g id="edge9" class="edge">
<title>P_HIGH&#45;&gt;F3</title>
<path fill="none" stroke="#4caf50" stroke-dasharray="5,2" d="M998.5,-142.16C998.5,-142.16 998.5,-96.42 998.5,-96.42"/>
<polygon fill="#4caf50" stroke="#4caf50" points="1002,-96.42 998.5,-86.42 995,-96.43 1002,-96.42"/>
</g>
<!-- P_HIGH&#45;&gt;F7 -->
<g id="edge8" class="edge">
<title>P_HIGH&#45;&gt;F7</title>
<path fill="none" stroke="#4caf50" stroke-dasharray="5,2" d="M1064.17,-142.16C1064.17,-142.16 1064.17,-96.42 1064.17,-96.42"/>
<polygon fill="#4caf50" stroke="#4caf50" points="1067.67,-96.42 1064.17,-86.42 1060.67,-96.43 1067.67,-96.42"/>
</g>
<!-- P_MED -->
<g id="node10" class="node">
<title>P_MED</title>
<polygon fill="#fff9c4" stroke="black" points="303,-186.27 203,-186.27 203,-142.27 309,-142.27 309,-180.27 303,-186.27"/>
<polyline fill="none" stroke="black" points="303,-186.27 303,-180.27 "/>
<polyline fill="none" stroke="black" points="309,-180.27 303,-180.27 "/>
<text text-anchor="middle" x="256" y="-167.27" font-family="Helvetica,sans-Serif" font-size="10.00">Medium&#45;term</text>
<text text-anchor="middle" x="256" y="-156.27" font-family="Helvetica,sans-Serif" font-size="10.00">(quality of life)</text>
</g>
<!-- P_MED&#45;&gt;F1 -->
<g id="edge10" class="edge">
<title>P_MED&#45;&gt;F1</title>
<path fill="none" stroke="#f5a623" stroke-dasharray="5,2" d="M202.84,-164C146.38,-164 65.17,-164 65.17,-164 65.17,-164 65.17,-96.13 65.17,-96.13"/>
<polygon fill="#f5a623" stroke="#f5a623" points="68.67,-96.13 65.17,-86.13 61.67,-96.13 68.67,-96.13"/>
</g>
<!-- P_MED&#45;&gt;F2 -->
<g id="edge11" class="edge">
<title>P_MED&#45;&gt;F2</title>
<path fill="none" stroke="#f5a623" stroke-dasharray="5,2" d="M309.28,-156C343.85,-156 382.5,-156 382.5,-156 382.5,-156 382.5,-96.26 382.5,-96.26"/>
<polygon fill="#f5a623" stroke="#f5a623" points="386,-96.26 382.5,-86.26 379,-96.26 386,-96.26"/>
</g>
<!-- P_LOW -->
<g id="node11" class="node">
<title>P_LOW</title>
<polygon fill="#c8e6c9" stroke="black" points="512,-186.27 414,-186.27 414,-142.27 518,-142.27 518,-180.27 512,-186.27"/>
<polyline fill="none" stroke="black" points="512,-186.27 512,-180.27 "/>
<polyline fill="none" stroke="black" points="518,-180.27 512,-180.27 "/>
<text text-anchor="middle" x="466" y="-167.27" font-family="Helvetica,sans-Serif" font-size="10.00">Long&#45;term</text>
<text text-anchor="middle" x="466" y="-156.27" font-family="Helvetica,sans-Serif" font-size="10.00">(nice to have)</text>
</g>
<!-- P_LOW&#45;&gt;F5 -->
<g id="edge13" class="edge">
<title>P_LOW&#45;&gt;F5</title>
<path fill="none" stroke="#9e9e9e" stroke-dasharray="5,2" d="M413.61,-171C370,-171 315,-171 315,-171 315,-171 315,-96.03 315,-96.03"/>
<polygon fill="#9e9e9e" stroke="#9e9e9e" points="318.5,-96.03 315,-86.03 311.5,-96.03 318.5,-96.03"/>
</g>
<!-- P_LOW&#45;&gt;F6 -->
<g id="edge14" class="edge">
<title>P_LOW&#45;&gt;F6</title>
<path fill="none" stroke="#9e9e9e" stroke-dasharray="5,2" d="M510.67,-142.16C510.67,-142.16 510.67,-96.42 510.67,-96.42"/>
<polygon fill="#9e9e9e" stroke="#9e9e9e" points="514.17,-96.42 510.67,-86.42 507.17,-96.43 514.17,-96.42"/>
</g>
<!-- P_LOW&#45;&gt;F4 -->
<g id="edge12" class="edge">
<title>P_LOW&#45;&gt;F4</title>
<path fill="none" stroke="#9e9e9e" stroke-dasharray="5,2" d="M514.33,-142.17C514.33,-124.97 514.33,-104 514.33,-104 514.33,-104 721.07,-104 721.07,-104 721.07,-104 721.07,-96.06 721.07,-96.06"/>
<polygon fill="#9e9e9e" stroke="#9e9e9e" points="724.57,-96.06 721.07,-86.06 717.57,-96.06 724.57,-96.06"/>
</g>
</g>
</svg>
