<?xml version="1.0" encoding="UTF-8" standalone="no"?>
<!DOCTYPE svg PUBLIC "-//W3C//DTD SVG 1.1//EN"
 "http://www.w3.org/Graphics/SVG/1.1/DTD/svg11.dtd">
<!-- Generated by graphviz version 2.43.0 (0)
 -->
<!-- Title: G Pages: 1 -->
<svg width="620pt" height="373pt"
 viewBox="0.00 0.00 620.00 373.17" xmlns="http://www.w3.org/2000/svg" xmlns:xlink="http://www.w3.org/1999/xlink">
<g id="graph0" class="graph" transform="scale(1 1) rotate(0) translate(4 369.17)">
<title>G</title>
<polygon fill="#0a0a0a" stroke="transparent" points="-4,4 -4,-369.17 616,-369.17 616,4 -4,4"/>
<text text-anchor="middle" x="306" y="-349.97" font-family="Courier New" font-size="14.00" fill="#00ffff">Dual&#45;GPU Model Residency Architecture</text>
<g id="clust1" class="cluster">
<title>cluster_gpu0</title>
<polygon fill="#0a0a0a" stroke="#00ff41" points="8,-8 8,-160 298,-160 298,-8 8,-8"/>
<text text-anchor="middle" x="153" y="-144.8" font-family="Courier New" font-size="14.00" fill="#00ff41">GPU 0 (RTX 3080 10GB)</text>
</g>
<g id="clust2" class="cluster">
<title>cluster_gpu1</title>
<polygon fill="#0a0a0a" stroke="#ffff00" points="306,-8 306,-160 604,-160 604,-8 306,-8"/>
<text text-anchor="middle" x="455" y="-144.8" font-family="Courier New" font-size="14.00" fill="#ffff00">GPU 1 (RTX 3060 12GB)</text>
</g>
<!-- ollama0 -->
<g id="node1" class="node">
<title>ollama0</title>
<polygon fill="#1a1a1a" stroke="#00ff41" points="290,-129 158,-129 158,-91 290,-91 290,-129"/>
<text text-anchor="middle" x="224" y="-113.8" font-family="Courier New" font-size="14.00" fill="#00ffff">Ollama Backend</text>
<text text-anchor="middle" x="224" y="-98.8" font-family="Courier New" font-size="14.00" fill="#00ffff">Port 11434</text>
</g>
<!-- m0_reason -->
<g id="node2" class="node">
<title>m0_reason</title>
<polygon fill="#002200" stroke="#00ffff" points="148,-54 16,-54 16,-16 148,-16 148,-54"/>
<text text-anchor="middle" x="82" y="-38.8" font-family="Courier New" font-size="14.00" fill="#00ffff">deepseek&#45;r1:8b</text>
<text text-anchor="middle" x="82" y="-23.8" font-family="Courier New" font-size="14.00" fill="#00ffff">(Residency A)</text>
</g>
<!-- ollama0&#45;&gt;m0_reason -->
<g id="edge1" class="edge">
<title>ollama0&#45;&gt;m0_reason</title>
<path fill="none" stroke="#ff00ff" stroke-width="2" d="M188.9,-90.96C169.95,-81.22 146.38,-69.1 126.2,-58.72"/>
<polygon fill="#ff00ff" stroke="#ff00ff" stroke-width="2" points="127.68,-55.55 117.19,-54.09 124.48,-61.78 127.68,-55.55"/>
</g>
<!-- m0_code -->
<g id="node3" class="node">
<title>m0_code</title>
<polygon fill="#002200" stroke="#00ffff" points="290,-54 166,-54 166,-16 290,-16 290,-54"/>
<text text-anchor="middle" x="228" y="-38.8" font-family="Courier New" font-size="14.00" fill="#00ffff">qwen3.5:4b</text>
<text text-anchor="middle" x="228" y="-23.8" font-family="Courier New" font-size="14.00" fill="#00ffff">(Residency B)</text>
</g>
<!-- ollama0&#45;&gt;m0_code -->
<g id="edge2" class="edge">
<title>ollama0&#45;&gt;m0_code</title>
<path fill="none" stroke="#ff00ff" stroke-width="2" d="M224.99,-90.96C225.43,-82.88 225.96,-73.18 226.46,-64.18"/>
<polygon fill="#ff00ff" stroke="#ff00ff" stroke-width="2" points="229.96,-64.27 227.01,-54.09 222.97,-63.88 229.96,-64.27"/>
</g>
<!-- ollama1 -->
<g id="node4" class="node">
<title>ollama1</title>
<polygon fill="#1a1a1a" stroke="#ffff00" points="446,-129 314,-129 314,-91 446,-91 446,-129"/>
<text text-anchor="middle" x="380" y="-113.8" font-family="Courier New" font-size="14.00" fill="#00ffff">Ollama Backend</text>
<text text-anchor="middle" x="380" y="-98.8" font-family="Courier New" font-size="14.00" fill="#00ffff">Port 11435</text>
</g>
<!-- m1_reason -->
<g id="node5" class="node">
<title>m1_reason</title>
<polygon fill="#222200" stroke="#00ffff" points="446,-54 314,-54 314,-16 446,-16 446,-54"/>
<text text-anchor="middle" x="380" y="-38.8" font-family="Courier New" font-size="14.00" fill="#00ffff">deepseek&#45;r1:8b</text>
<text text-anchor="middle" x="380" y="-23.8" font-family="Courier New" font-size="14.00" fill="#00ffff">(Residency A)</text>
</g>
<!-- ollama1&#45;&gt;m1_reason -->
<g id="edge3" class="edge">
<title>ollama1&#45;&gt;m1_reason</title>
<path fill="none" stroke="#ff00ff" stroke-width="2" d="M380,-90.96C380,-82.88 380,-73.18 380,-64.18"/>
<polygon fill="#ff00ff" stroke="#ff00ff" stroke-width="2" points="383.5,-64.09 380,-54.09 376.5,-64.09 383.5,-64.09"/>
</g>
<!-- m1_code -->
<g id="node6" class="node">
<title>m1_code</title>
<polygon fill="#222200" stroke="#00ffff" points="596,-54 464,-54 464,-16 596,-16 596,-54"/>
<text text-anchor="middle" x="530" y="-38.8" font-family="Courier New" font-size="14.00" fill="#00ffff">ministral&#45;3:8b</text>
<text text-anchor="middle" x="530" y="-23.8" font-family="Courier New" font-size="14.00" fill="#00ffff">(Residency B)</text>
</g>
<!-- ollama1&#45;&gt;m1_code -->
<g id="edge4" class="edge">
<title>ollama1&#45;&gt;m1_code</title>
<path fill="none" stroke="#ff00ff" stroke-width="2" d="M417.08,-90.96C437.18,-81.17 462.22,-68.99 483.6,-58.58"/>
<polygon fill="#ff00ff" stroke="#ff00ff" stroke-width="2" points="485.37,-61.61 492.83,-54.09 482.3,-55.32 485.37,-61.61"/>
</g>
<!-- PP -->
<g id="node7" class="node">
<title>PP</title>
<polygon fill="#330033" stroke="#ff00ff" points="431.32,-297.01 431.32,-321.16 360.84,-338.24 261.16,-338.24 190.68,-321.16 190.68,-297.01 261.16,-279.93 360.84,-279.93 431.32,-297.01"/>
<polygon fill="none" stroke="#ff00ff" points="435.33,-293.85 435.33,-324.32 361.32,-342.25 260.68,-342.25 186.67,-324.32 186.67,-293.85 260.68,-275.92 361.32,-275.92 435.33,-293.85"/>
<text text-anchor="middle" x="311" y="-312.88" font-family="Courier New" font-size="14.00" fill="#00ffff">PaperProcessor.py</text>
<text text-anchor="middle" x="311" y="-297.88" font-family="Courier New" font-size="14.00" fill="#00ffff">(Fork)</text>
</g>
<!-- W0 -->
<g id="node8" class="node">
<title>W0</title>
<polygon fill="#1a1a1a" stroke="#00ff41" points="302.5,-239 203.5,-239 203.5,-201 302.5,-201 302.5,-239"/>
<text text-anchor="middle" x="253" y="-223.8" font-family="Courier New" font-size="14.00" fill="#00ffff">Worker 1</text>
<text text-anchor="middle" x="253" y="-208.8" font-family="Courier New" font-size="14.00" fill="#00ffff">(Thread A)</text>
</g>
<!-- PP&#45;&gt;W0 -->
<g id="edge5" class="edge">
<title>PP&#45;&gt;W0</title>
<path fill="none" stroke="#ff00ff" stroke-width="2" d="M289.4,-275.66C283.22,-266.37 276.55,-256.37 270.64,-247.48"/>
<polygon fill="#ff00ff" stroke="#ff00ff" stroke-width="2" points="273.47,-245.43 265.02,-239.04 267.65,-249.31 273.47,-245.43"/>
</g>
<!-- W1 -->
<g id="node9" class="node">
<title>W1</title>
<polygon fill="#1a1a1a" stroke="#ffff00" points="424.5,-239 325.5,-239 325.5,-201 424.5,-201 424.5,-239"/>
<text text-anchor="middle" x="375" y="-223.8" font-family="Courier New" font-size="14.00" fill="#00ffff">Worker 2</text>
<text text-anchor="middle" x="375" y="-208.8" font-family="Courier New" font-size="14.00" fill="#00ffff">(Thread B)</text>
</g>
<!-- PP&#45;&gt;W1 -->
<g id="edge6" class="edge">
<title>PP&#45;&gt;W1</title>
<path fill="none" stroke="#ff00ff" stroke-width="2" d="M334.83,-275.66C341.73,-266.28 349.16,-256.16 355.74,-247.21"/>
<polygon fill="#ff00ff" stroke="#ff00ff" stroke-width="2" points="358.64,-249.17 361.74,-239.04 353,-245.03 358.64,-249.17"/>
</g>
<!-- W0&#45;&gt;ollama0 -->
<g id="edge7" class="edge">
<title>W0&#45;&gt;ollama0</title>
<path fill="none" stroke="#ff00ff" stroke-width="2" d="M248.08,-200.68C243.53,-183.74 236.71,-158.33 231.49,-138.88"/>
<polygon fill="#ff00ff" stroke="#ff00ff" stroke-width="2" points="234.82,-137.8 228.85,-129.05 228.06,-139.62 234.82,-137.8"/>
<text text-anchor="middle" x="263.5" y="-171.8" font-family="Times,serif" font-size="14.00">Pinning</text>
</g>
<!-- W1&#45;&gt;ollama1 -->
<g id="edge8" class="edge">
<title>W1&#45;&gt;ollama1</title>
<path fill="none" stroke="#ff00ff" stroke-width="2" d="M375.85,-200.68C376.63,-183.82 377.8,-158.57 378.7,-139.15"/>
<polygon fill="#ff00ff" stroke="#ff00ff" stroke-width="2" points="382.2,-139.2 379.16,-129.05 375.21,-138.88 382.2,-139.2"/>
<text text-anchor="middle" x="398.5" y="-171.8" font-family="Times,serif" font-size="14.00">Pinning</text>
</g>
</g>
</svg>
