<?xml version="1.0" encoding="UTF-8" standalone="no"?>
<!DOCTYPE svg PUBLIC "-//W3C//DTD SVG 1.1//EN"
 "http://www.w3.org/Graphics/SVG/1.1/DTD/svg11.dtd">
<!-- Generated by graphviz version 2.43.0 (0)
 -->
<!-- Title: per_paper_flow Pages: 1 -->
<svg width="907pt" height="879pt"
 viewBox="0.00 0.00 907.00 878.97" xmlns="http://www.w3.org/2000/svg" xmlns:xlink="http://www.w3.org/1999/xlink">
<g id="graph0" class="graph" transform="scale(1 1) rotate(0) translate(36 842.97)">
<title>per_paper_flow</title>
<polygon fill="black" stroke="transparent" points="-36,36 -36,-842.97 871,-842.97 871,36 -36,36"/>
<text text-anchor="middle" x="417.5" y="-790.17" font-family="Courier New" font-size="16.00" fill="#00ffff">Per&#45;paper processing flow</text>
<g id="clust1" class="cluster">
<title>cluster_sections</title>
<polygon fill="black" stroke="#00ff41" stroke-dasharray="5,2" points="8,-275.97 8,-361.97 827,-361.97 827,-275.97 8,-275.97"/>
<text text-anchor="middle" x="417.5" y="-345.17" font-family="Courier New" font-size="16.00" fill="#00ff41">5 prompt stages (independent, resumable)</text>
</g>
<!-- pdf -->
<g id="node1" class="node">
<title>pdf</title>
<polygon fill="#0a0a0a" stroke="#00ffff" stroke-width="2" points="467.5,-780.97 382.5,-780.97 382.5,-744.97 473.5,-744.97 473.5,-774.97 467.5,-780.97"/>
<polyline fill="none" stroke="#00ffff" stroke-width="2" points="467.5,-780.97 467.5,-774.97 "/>
<polyline fill="none" stroke="#00ffff" stroke-width="2" points="473.5,-774.97 467.5,-774.97 "/>
<text text-anchor="middle" x="428" y="-760.17" font-family="Courier New" font-size="11.00" fill="#00ffff">PDF on disk</text>
</g>
<!-- extract -->
<g id="node2" class="node">
<title>extract</title>
<polygon fill="#0a0a0a" stroke="#00ffff" stroke-width="2" points="500.5,-707.97 355.5,-707.97 355.5,-671.97 500.5,-671.97 500.5,-707.97"/>
<text text-anchor="middle" x="428" y="-693.17" font-family="Courier New" font-size="11.00" fill="#00ffff">extract_pages()</text>
<text text-anchor="middle" x="428" y="-681.17" font-family="Courier New" font-size="11.00" fill="#00ffff">PyMuPDF → List[str]</text>
</g>
<!-- pdf&#45;&gt;extract -->
<g id="edge1" class="edge">
<title>pdf&#45;&gt;extract</title>
<path fill="none" stroke="#ff00ff" stroke-width="2" d="M428,-744.78C428,-736.76 428,-727.02 428,-718.04"/>
<polygon fill="#ff00ff" stroke="#ff00ff" stroke-width="2" points="431.5,-718 428,-708 424.5,-718 431.5,-718"/>
</g>
<!-- chunk -->
<g id="node3" class="node">
<title>chunk</title>
<polygon fill="#0a0a0a" stroke="#ff6600" stroke-width="2" points="504,-634.97 352,-634.97 352,-590.97 504,-590.97 504,-634.97"/>
<text text-anchor="middle" x="428" y="-622.17" font-family="Courier New" font-size="11.00" fill="#ff6600">build_chunks()</text>
<text text-anchor="middle" x="428" y="-610.17" font-family="Courier New" font-size="11.00" fill="#ff6600">sliding window</text>
<text text-anchor="middle" x="428" y="-598.17" font-family="Courier New" font-size="11.00" fill="#ff6600">window=12 &#160;overlap=2</text>
</g>
<!-- extract&#45;&gt;chunk -->
<g id="edge2" class="edge">
<title>extract&#45;&gt;chunk</title>
<path fill="none" stroke="#ff00ff" stroke-width="2" d="M428,-671.95C428,-664.12 428,-654.58 428,-645.51"/>
<polygon fill="#ff00ff" stroke="#ff00ff" stroke-width="2" points="431.5,-645.21 428,-635.21 424.5,-645.21 431.5,-645.21"/>
</g>
<!-- mapred -->
<g id="node4" class="node">
<title>mapred</title>
<polygon fill="#0a0a0a" stroke="#ff6600" stroke-width="2" points="445.5,-543.97 300.5,-543.97 300.5,-499.97 445.5,-499.97 445.5,-543.97"/>
<text text-anchor="middle" x="373" y="-531.17" font-family="Courier New" font-size="11.00" fill="#ff6600">map_reduce_chunks()</text>
<text text-anchor="middle" x="373" y="-519.17" font-family="Courier New" font-size="11.00" fill="#ff6600">per&#45;chunk summary</text>
<text text-anchor="middle" x="373" y="-507.17" font-family="Courier New" font-size="11.00" fill="#ff6600">→ condensed context</text>
</g>
<!-- chunk&#45;&gt;mapred -->
<g id="edge3" class="edge">
<title>chunk&#45;&gt;mapred</title>
<path fill="none" stroke="#ff00ff" stroke-width="2" d="M412.77,-590.76C408.83,-585.05 404.66,-578.84 401,-572.97 397.02,-566.59 392.94,-559.61 389.18,-552.95"/>
<polygon fill="#ff00ff" stroke="#ff00ff" stroke-width="2" points="392.2,-551.18 384.28,-544.15 386.09,-554.59 392.2,-551.18"/>
<text text-anchor="middle" x="434.5" y="-564.97" font-family="Courier New" font-size="10.00">if &gt; window</text>
</g>
<!-- pick -->
<g id="node5" class="node">
<title>pick</title>
<polygon fill="#0a0a0a" stroke="#ffff00" stroke-width="2" points="427,-462.97 242,-430.97 427,-398.97 612,-430.97 427,-462.97"/>
<text text-anchor="middle" x="427" y="-434.17" font-family="Courier New" font-size="11.00" fill="#ffff00">select_model(page_count)</text>
<text text-anchor="middle" x="427" y="-422.17" font-family="Courier New" font-size="11.00" fill="#ffff00">≤8→8b · ≤18→14b · &gt;18→31b</text>
</g>
<!-- chunk&#45;&gt;pick -->
<g id="edge4" class="edge">
<title>chunk&#45;&gt;pick</title>
<path fill="none" stroke="#ff00ff" stroke-width="2" stroke-dasharray="5,2" d="M455.68,-590.89C460.69,-585.63 465.21,-579.58 468,-572.97 482.43,-538.74 467.15,-497.79 451.3,-468.86"/>
<polygon fill="#ff00ff" stroke="#ff00ff" stroke-width="2" points="454.18,-466.85 446.17,-459.92 448.11,-470.33 454.18,-466.85"/>
<text text-anchor="middle" x="506.5" y="-519.47" font-family="Courier New" font-size="10.00">if ≤ window</text>
</g>
<!-- mapred&#45;&gt;pick -->
<g id="edge5" class="edge">
<title>mapred&#45;&gt;pick</title>
<path fill="none" stroke="#ff00ff" stroke-width="2" d="M385.8,-499.88C391.4,-490.64 398.15,-479.52 404.54,-468.98"/>
<polygon fill="#ff00ff" stroke="#ff00ff" stroke-width="2" points="407.6,-470.68 409.8,-460.32 401.62,-467.05 407.6,-470.68"/>
</g>
<!-- s1 -->
<g id="node6" class="node">
<title>s1</title>
<polygon fill="#0a0a0a" stroke="#00ff41" stroke-width="2" points="174,-327.97 16,-327.97 16,-283.97 174,-283.97 174,-327.97"/>
<text text-anchor="middle" x="95" y="-315.17" font-family="Courier New" font-size="11.00" fill="#00ff41">① summary</text>
<text text-anchor="middle" x="95" y="-303.17" font-family="Courier New" font-size="11.00" fill="#00ff41">motivation · methods</text>
<text text-anchor="middle" x="95" y="-291.17" font-family="Courier New" font-size="11.00" fill="#00ff41">results · limitations</text>
</g>
<!-- pick&#45;&gt;s1 -->
<g id="edge6" class="edge">
<title>pick&#45;&gt;s1</title>
<path fill="none" stroke="#ff00ff" stroke-width="2" d="M344.47,-413.2C296.22,-401.87 234.81,-384.81 183,-361.97 165.64,-354.31 147.66,-343.65 132.52,-333.74"/>
<polygon fill="#ff00ff" stroke="#ff00ff" stroke-width="2" points="134.22,-330.67 123.96,-328.03 130.34,-336.49 134.22,-330.67"/>
</g>
<!-- s2 -->
<g id="node7" class="node">
<title>s2</title>
<polygon fill="#0a0a0a" stroke="#00ff41" stroke-width="2" points="350,-327.97 192,-327.97 192,-283.97 350,-283.97 350,-327.97"/>
<text text-anchor="middle" x="271" y="-315.17" font-family="Courier New" font-size="11.00" fill="#00ff41">② symbolic_logic</text>
<text text-anchor="middle" x="271" y="-303.17" font-family="Courier New" font-size="11.00" fill="#00ff41">formal notation</text>
<text text-anchor="middle" x="271" y="-291.17" font-family="Courier New" font-size="11.00" fill="#00ff41">theorems · complexity</text>
</g>
<!-- pick&#45;&gt;s2 -->
<g id="edge7" class="edge">
<title>pick&#45;&gt;s2</title>
<path fill="none" stroke="#ff00ff" stroke-width="2" d="M394.68,-404.48C368.8,-384.08 332.56,-355.5 305.99,-334.56"/>
<polygon fill="#ff00ff" stroke="#ff00ff" stroke-width="2" points="308.1,-331.77 298.08,-328.32 303.77,-337.26 308.1,-331.77"/>
</g>
<!-- s3 -->
<g id="node8" class="node">
<title>s3</title>
<polygon fill="#0a0a0a" stroke="#da70ff" stroke-width="2" points="486,-327.97 368,-327.97 368,-283.97 486,-283.97 486,-327.97"/>
<text text-anchor="middle" x="427" y="-315.17" font-family="Courier New" font-size="11.00" fill="#da70ff">③ cpp_examples</text>
<text text-anchor="middle" x="427" y="-303.17" font-family="Courier New" font-size="11.00" fill="#da70ff">C++20/23</text>
<text text-anchor="middle" x="427" y="-291.17" font-family="Courier New" font-size="11.00" fill="#da70ff">qwen3&#45;coder:30b</text>
</g>
<!-- pick&#45;&gt;s3 -->
<g id="edge8" class="edge">
<title>pick&#45;&gt;s3</title>
<path fill="none" stroke="#da70ff" stroke-width="2" d="M427,-398.93C427,-380.4 427,-356.94 427,-338.35"/>
<polygon fill="#da70ff" stroke="#da70ff" stroke-width="2" points="430.5,-338.32 427,-328.32 423.5,-338.32 430.5,-338.32"/>
<text text-anchor="middle" x="457.5" y="-372.97" font-family="Courier New" font-size="10.00" fill="#da70ff">code model</text>
</g>
<!-- s4 -->
<g id="node9" class="node">
<title>s4</title>
<polygon fill="#0a0a0a" stroke="#ffff00" stroke-width="2" points="635.5,-327.97 504.5,-327.97 504.5,-283.97 635.5,-283.97 635.5,-327.97"/>
<text text-anchor="middle" x="570" y="-315.17" font-family="Courier New" font-size="11.00" fill="#ffff00">④ diagrams</text>
<text text-anchor="middle" x="570" y="-303.17" font-family="Courier New" font-size="11.00" fill="#ffff00">6 neon DOT blocks</text>
<text text-anchor="middle" x="570" y="-291.17" font-family="Courier New" font-size="11.00" fill="#ffff00">dot → SVG</text>
</g>
<!-- pick&#45;&gt;s4 -->
<g id="edge9" class="edge">
<title>pick&#45;&gt;s4</title>
<path fill="none" stroke="#ff00ff" stroke-width="2" d="M461.98,-404.74C471.86,-397.31 482.51,-389 492,-380.97 509.11,-366.49 527.32,-349.31 541.85,-335.15"/>
<polygon fill="#ff00ff" stroke="#ff00ff" stroke-width="2" points="544.4,-337.56 549.08,-328.06 539.49,-332.56 544.4,-337.56"/>
</g>
<!-- s5 -->
<g id="node10" class="node">
<title>s5</title>
<polygon fill="#0a0a0a" stroke="#00ff41" stroke-width="2" points="818.5,-327.97 653.5,-327.97 653.5,-283.97 818.5,-283.97 818.5,-327.97"/>
<text text-anchor="middle" x="736" y="-315.17" font-family="Courier New" font-size="11.00" fill="#00ff41">⑤ extras</text>
<text text-anchor="middle" x="736" y="-303.17" font-family="Courier New" font-size="11.00" fill="#00ff41">open questions</text>
<text text-anchor="middle" x="736" y="-291.17" font-family="Courier New" font-size="11.00" fill="#00ff41">critique · connections</text>
</g>
<!-- pick&#45;&gt;s5 -->
<g id="edge10" class="edge">
<title>pick&#45;&gt;s5</title>
<path fill="none" stroke="#ff00ff" stroke-width="2" d="M500.79,-411.73C543.8,-399.93 598.55,-382.88 645,-361.97 662.59,-354.05 680.98,-343.43 696.59,-333.64"/>
<polygon fill="#ff00ff" stroke="#ff00ff" stroke-width="2" points="698.88,-336.33 705.43,-327.99 695.12,-330.43 698.88,-336.33"/>
</g>
<!-- meta -->
<g id="node11" class="node">
<title>meta</title>
<polygon fill="#0a0a0a" stroke="#7fff00" stroke-width="2" points="540.5,-246.97 307.5,-246.97 307.5,-210.97 546.5,-210.97 546.5,-240.97 540.5,-246.97"/>
<polyline fill="none" stroke="#7fff00" stroke-width="2" points="540.5,-246.97 540.5,-240.97 "/>
<polyline fill="none" stroke="#7fff00" stroke-width="2" points="546.5,-240.97 540.5,-240.97 "/>
<text text-anchor="middle" x="427" y="-232.17" font-family="Courier New" font-size="11.00" fill="#7fff00">metadata.json</text>
<text text-anchor="middle" x="427" y="-220.17" font-family="Courier New" font-size="11.00" fill="#7fff00">hash · model · sections_completed</text>
</g>
<!-- s1&#45;&gt;meta -->
<g id="edge11" class="edge">
<title>s1&#45;&gt;meta</title>
<path fill="none" stroke="#ff00ff" stroke-width="2" d="M155.28,-283.94C164.51,-281.06 173.97,-278.3 183,-275.97 224.07,-265.38 269.61,-256.14 310.12,-248.77"/>
<polygon fill="#ff00ff" stroke="#ff00ff" stroke-width="2" points="310.81,-252.2 320.03,-246.98 309.57,-245.31 310.81,-252.2"/>
</g>
<!-- s2&#45;&gt;meta -->
<g id="edge12" class="edge">
<title>s2&#45;&gt;meta</title>
<path fill="none" stroke="#ff00ff" stroke-width="2" d="M314.87,-283.88C335.99,-273.73 361.26,-261.57 382.46,-251.38"/>
<polygon fill="#ff00ff" stroke="#ff00ff" stroke-width="2" points="384.09,-254.48 391.58,-247 381.05,-248.17 384.09,-254.48"/>
</g>
<!-- s3&#45;&gt;meta -->
<g id="edge13" class="edge">
<title>s3&#45;&gt;meta</title>
<path fill="none" stroke="#ff00ff" stroke-width="2" d="M427,-283.68C427,-275.43 427,-265.88 427,-257.14"/>
<polygon fill="#ff00ff" stroke="#ff00ff" stroke-width="2" points="430.5,-257.03 427,-247.03 423.5,-257.03 430.5,-257.03"/>
</g>
<!-- s4&#45;&gt;meta -->
<g id="edge14" class="edge">
<title>s4&#45;&gt;meta</title>
<path fill="none" stroke="#ff00ff" stroke-width="2" d="M529.79,-283.88C510.67,-273.85 487.85,-261.88 468.56,-251.77"/>
<polygon fill="#ff00ff" stroke="#ff00ff" stroke-width="2" points="470.18,-248.66 459.7,-247.12 466.93,-254.86 470.18,-248.66"/>
</g>
<!-- s5&#45;&gt;meta -->
<g id="edge15" class="edge">
<title>s5&#45;&gt;meta</title>
<path fill="none" stroke="#ff00ff" stroke-width="2" d="M672.6,-283.87C663.38,-281.06 653.98,-278.34 645,-275.97 606.89,-265.9 564.59,-256.56 527.46,-248.97"/>
<polygon fill="#ff00ff" stroke="#ff00ff" stroke-width="2" points="528.13,-245.53 517.63,-246.97 526.74,-252.39 528.13,-245.53"/>
</g>
<!-- done -->
<g id="node12" class="node">
<title>done</title>
<ellipse fill="#0a0a0a" stroke="#ff0055" stroke-width="2" cx="427" cy="-86.98" rx="82.97" ry="82.97"/>
<ellipse fill="none" stroke="#ff0055" stroke-width="2" cx="427" cy="-86.98" rx="86.97" ry="86.97"/>
<text text-anchor="middle" x="427" y="-84.18" font-family="Courier New" font-size="11.00" fill="#ff0055">✔ dossier complete</text>
</g>
<!-- meta&#45;&gt;done -->
<g id="edge16" class="edge">
<title>meta&#45;&gt;done</title>
<path fill="none" stroke="#ff0055" stroke-width="2" d="M427,-210.8C427,-203.47 427,-194.28 427,-184.25"/>
<polygon fill="#ff0055" stroke="#ff0055" stroke-width="2" points="430.5,-183.97 427,-173.97 423.5,-183.97 430.5,-183.97"/>
</g>
</g>
</svg>
