<?xml version="1.0" encoding="UTF-8" standalone="no"?>
<!DOCTYPE svg PUBLIC "-//W3C//DTD SVG 1.1//EN"
 "http://www.w3.org/Graphics/SVG/1.1/DTD/svg11.dtd">
<!-- Generated by graphviz version 2.43.0 (0)
 -->
<!-- Title: model_routing Pages: 1 -->
<svg width="772pt" height="370pt"
 viewBox="0.00 0.00 771.70 370.00" xmlns="http://www.w3.org/2000/svg" xmlns:xlink="http://www.w3.org/1999/xlink">
<g id="graph0" class="graph" transform="scale(1 1) rotate(0) translate(36 334)">
<title>model_routing</title>
<polygon fill="black" stroke="transparent" points="-36,36 -36,-334 735.7,-334 735.7,36 -36,36"/>
<text text-anchor="middle" x="349.85" y="-281.2" font-family="Courier New" font-size="16.00" fill="#ffff00">Model auto&#45;selection by page count</text>
<g id="clust1" class="cluster">
<title>cluster_tiers</title>
<polygon fill="black" stroke="#ff00ff" stroke-dasharray="5,2" points="425.7,-8 425.7,-264 599.7,-264 599.7,-8 425.7,-8"/>
<text text-anchor="middle" x="512.7" y="-247.2" font-family="Courier New" font-size="16.00" fill="#ff00ff">Model tiers</text>
</g>
<!-- pdf -->
<g id="node1" class="node">
<title>pdf</title>
<path fill="#0a0a0a" stroke="#00ffff" stroke-width="2" d="M111,-143C111,-145.21 86.12,-147 55.5,-147 24.88,-147 0,-145.21 0,-143 0,-143 0,-107 0,-107 0,-104.79 24.88,-103 55.5,-103 86.12,-103 111,-104.79 111,-107 111,-107 111,-143 111,-143"/>
<path fill="none" stroke="#00ffff" stroke-width="2" d="M111,-143C111,-140.79 86.12,-139 55.5,-139 24.88,-139 0,-140.79 0,-143"/>
<text text-anchor="middle" x="55.5" y="-128.2" font-family="Courier New" font-size="11.00" fill="#00ffff">PDF</text>
<text text-anchor="middle" x="55.5" y="-116.2" font-family="Courier New" font-size="11.00" fill="#00ffff">page_count = N</text>
</g>
<!-- gate -->
<g id="node2" class="node">
<title>gate</title>
<polygon fill="#0a0a0a" stroke="#ffff00" stroke-width="2" points="248.35,-143 148.15,-125 248.35,-107 348.55,-125 248.35,-143"/>
<text text-anchor="middle" x="248.35" y="-122.2" font-family="Courier New" font-size="11.00" fill="#ffff00">select_model(N)</text>
</g>
<!-- pdf&#45;&gt;gate -->
<g id="edge1" class="edge">
<title>pdf&#45;&gt;gate</title>
<path fill="none" stroke="#00ffff" stroke-width="2" d="M111.19,-125C119.68,-125 128.71,-125 137.91,-125"/>
<polygon fill="#00ffff" stroke="#00ffff" stroke-width="2" points="137.95,-128.5 147.95,-125 137.95,-121.5 137.95,-128.5"/>
</g>
<!-- fast -->
<g id="node3" class="node">
<title>fast</title>
<polygon fill="#0a0a0a" stroke="#00ff41" stroke-width="2" points="591.7,-176 433.7,-176 433.7,-140 591.7,-140 591.7,-176"/>
<text text-anchor="middle" x="512.7" y="-161.2" font-family="Courier New" font-size="11.00" fill="#00ff41">deepseek&#45;r1:8b</text>
<text text-anchor="middle" x="512.7" y="-149.2" font-family="Courier New" font-size="11.00" fill="#00ff41">~5 GiB · fits 1× 3060</text>
</g>
<!-- gate&#45;&gt;fast -->
<g id="edge2" class="edge">
<title>gate&#45;&gt;fast</title>
<path fill="none" stroke="#00ff41" stroke-width="2" d="M307.9,-132.36C341.86,-136.64 385.31,-142.1 423.36,-146.89"/>
<polygon fill="#00ff41" stroke="#00ff41" stroke-width="2" points="423.06,-150.38 433.42,-148.15 423.94,-143.43 423.06,-150.38"/>
<text text-anchor="middle" x="391.2" y="-148" font-family="Courier New" font-size="10.00" fill="#00ff41">N ≤ 8</text>
</g>
<!-- mid -->
<g id="node4" class="node">
<title>mid</title>
<polygon fill="#0a0a0a" stroke="#00ffff" stroke-width="2" points="585.2,-230 440.2,-230 440.2,-194 585.2,-194 585.2,-230"/>
<text text-anchor="middle" x="512.7" y="-215.2" font-family="Courier New" font-size="11.00" fill="#00ffff">deepseek&#45;r1:14b</text>
<text text-anchor="middle" x="512.7" y="-203.2" font-family="Courier New" font-size="11.00" fill="#00ffff">~9 GiB · single&#45;GPU</text>
</g>
<!-- gate&#45;&gt;mid -->
<g id="edge3" class="edge">
<title>gate&#45;&gt;mid</title>
<path fill="none" stroke="#00ffff" stroke-width="2" d="M283.41,-136.85C318.87,-149.14 376.06,-168.77 425.7,-185 431.56,-186.92 437.65,-188.88 443.76,-190.83"/>
<polygon fill="#00ffff" stroke="#00ffff" stroke-width="2" points="442.76,-194.19 453.35,-193.89 444.88,-187.52 442.76,-194.19"/>
<text text-anchor="middle" x="391.2" y="-183" font-family="Courier New" font-size="10.00" fill="#00ffff">N ≤ 18</text>
</g>
<!-- xl -->
<g id="node5" class="node">
<title>xl</title>
<polygon fill="#0a0a0a" stroke="#ff00ff" stroke-width="2" points="588.7,-60 440.7,-60 436.7,-56 436.7,-16 584.7,-16 588.7,-20 588.7,-60"/>
<polyline fill="none" stroke="#ff00ff" stroke-width="2" points="584.7,-56 436.7,-56 "/>
<polyline fill="none" stroke="#ff00ff" stroke-width="2" points="584.7,-56 584.7,-16 "/>
<polyline fill="none" stroke="#ff00ff" stroke-width="2" points="584.7,-56 588.7,-60 "/>
<text text-anchor="middle" x="512.7" y="-47.2" font-family="Courier New" font-size="11.00" fill="#ff00ff">gemma4:31b&#45;it&#45;q4_K_M</text>
<text text-anchor="middle" x="512.7" y="-35.2" font-family="Courier New" font-size="11.00" fill="#ff00ff">~18 GiB · dual&#45;GPU</text>
<text text-anchor="middle" x="512.7" y="-23.2" font-family="Courier New" font-size="11.00" fill="#ff00ff">best reasoning</text>
</g>
<!-- gate&#45;&gt;xl -->
<g id="edge4" class="edge">
<title>gate&#45;&gt;xl</title>
<path fill="none" stroke="#ff00ff" stroke-width="3" d="M284.46,-113.36C322.88,-100.62 385.63,-79.81 435.47,-63.28"/>
<polygon fill="#ff00ff" stroke="#ff00ff" stroke-width="3" points="436.87,-66.5 445.26,-60.03 434.66,-59.86 436.87,-66.5"/>
<text text-anchor="middle" x="391.2" y="-87" font-family="Courier New" font-size="10.00" fill="#ff00ff">N &gt; 18</text>
</g>
<!-- code -->
<g id="node6" class="node">
<title>code</title>
<polygon fill="#0a0a0a" stroke="#da70ff" stroke-width="2" points="581.7,-122 447.7,-122 443.7,-118 443.7,-78 577.7,-78 581.7,-82 581.7,-122"/>
<polyline fill="none" stroke="#da70ff" stroke-width="2" points="577.7,-118 443.7,-118 "/>
<polyline fill="none" stroke="#da70ff" stroke-width="2" points="577.7,-118 577.7,-78 "/>
<polyline fill="none" stroke="#da70ff" stroke-width="2" points="577.7,-118 581.7,-122 "/>
<text text-anchor="middle" x="512.7" y="-109.2" font-family="Courier New" font-size="11.00" fill="#da70ff">qwen3&#45;coder:30b</text>
<text text-anchor="middle" x="512.7" y="-97.2" font-family="Courier New" font-size="11.00" fill="#da70ff">~17 GiB · dual&#45;GPU</text>
<text text-anchor="middle" x="512.7" y="-85.2" font-family="Courier New" font-size="11.00" fill="#da70ff">C++ stage only</text>
</g>
<!-- gate&#45;&gt;code -->
<g id="edge5" class="edge">
<title>gate&#45;&gt;code</title>
<path fill="none" stroke="#da70ff" stroke-width="2" stroke-dasharray="5,2" d="M305.38,-117.16C324.78,-114.63 346.67,-111.97 366.7,-110 388.27,-107.88 411.69,-106.06 433.29,-104.57"/>
<polygon fill="#da70ff" stroke="#da70ff" stroke-width="2" points="433.66,-108.05 443.4,-103.89 433.19,-101.07 433.66,-108.05"/>
<text text-anchor="middle" x="391.2" y="-124" font-family="Courier New" font-size="10.00" fill="#da70ff">stage 3</text>
<text text-anchor="middle" x="391.2" y="-113" font-family="Courier New" font-size="10.00" fill="#da70ff">(always)</text>
</g>
<!-- g3060 -->
<g id="node8" class="node">
<title>g3060</title>
<polygon fill="#0a0a0a" stroke="#ff6600" stroke-width="2" points="699.7,-159 628.7,-159 628.7,-123 699.7,-123 699.7,-159"/>
<text text-anchor="middle" x="664.2" y="-144.2" font-family="Courier New" font-size="11.00" fill="#ff6600">RTX 3060</text>
<text text-anchor="middle" x="664.2" y="-132.2" font-family="Courier New" font-size="11.00" fill="#ff6600">12 GiB</text>
</g>
<!-- fast&#45;&gt;g3060 -->
<g id="edge6" class="edge">
<title>fast&#45;&gt;g3060</title>
<path fill="none" stroke="#ff6600" stroke-width="2" d="M591.95,-149.1C601.09,-148.06 610.16,-147.03 618.62,-146.07"/>
<polygon fill="#ff6600" stroke="#ff6600" stroke-width="2" points="619.04,-149.54 628.58,-144.94 618.25,-142.59 619.04,-149.54"/>
</g>
<!-- mid&#45;&gt;g3060 -->
<g id="edge7" class="edge">
<title>mid&#45;&gt;g3060</title>
<path fill="none" stroke="#ff6600" stroke-width="2" d="M578.86,-193.86C586.01,-191.19 593.09,-188.23 599.7,-185 610.99,-179.47 622.53,-172.09 632.62,-164.96"/>
<polygon fill="#ff6600" stroke="#ff6600" stroke-width="2" points="634.69,-167.78 640.72,-159.07 630.57,-162.12 634.69,-167.78"/>
</g>
<!-- g3080 -->
<g id="node7" class="node">
<title>g3080</title>
<polygon fill="#0a0a0a" stroke="#ff6600" stroke-width="2" points="699.7,-90 628.7,-90 628.7,-54 699.7,-54 699.7,-90"/>
<text text-anchor="middle" x="664.2" y="-75.2" font-family="Courier New" font-size="11.00" fill="#ff6600">RTX 3080</text>
<text text-anchor="middle" x="664.2" y="-63.2" font-family="Courier New" font-size="11.00" fill="#ff6600">10 GiB</text>
</g>
<!-- xl&#45;&gt;g3080 -->
<g id="edge8" class="edge">
<title>xl&#45;&gt;g3080</title>
<path fill="none" stroke="#ff6600" stroke-width="2" d="M588.73,-53.02C596.16,-54.65 603.59,-56.32 610.7,-58 613.32,-58.62 616.01,-59.27 618.72,-59.95"/>
<polygon fill="#ff6600" stroke="#ff6600" stroke-width="2" points="617.98,-63.37 628.53,-62.46 619.71,-56.59 617.98,-63.37"/>
</g>
<!-- xl&#45;&gt;g3060 -->
<g id="edge9" class="edge">
<title>xl&#45;&gt;g3060</title>
<path fill="none" stroke="#ff6600" stroke-width="2" d="M584.61,-60.22C589.88,-62.87 594.97,-65.79 599.7,-69 604.79,-72.46 625.13,-95.88 641.44,-115.09"/>
<polygon fill="#ff6600" stroke="#ff6600" stroke-width="2" points="638.77,-117.35 647.9,-122.72 644.11,-112.83 638.77,-117.35"/>
</g>
<!-- code&#45;&gt;g3080 -->
<g id="edge10" class="edge">
<title>code&#45;&gt;g3080</title>
<path fill="none" stroke="#ff6600" stroke-width="2" d="M581.89,-87.23C594.39,-84.89 607.15,-82.5 618.74,-80.33"/>
<polygon fill="#ff6600" stroke="#ff6600" stroke-width="2" points="619.4,-83.76 628.58,-78.48 618.11,-76.88 619.4,-83.76"/>
</g>
<!-- code&#45;&gt;g3060 -->
<g id="edge11" class="edge">
<title>code&#45;&gt;g3060</title>
<path fill="none" stroke="#ff6600" stroke-width="2" d="M581.89,-118.7C594.39,-122.13 607.15,-125.63 618.74,-128.81"/>
<polygon fill="#ff6600" stroke="#ff6600" stroke-width="2" points="618.01,-132.24 628.58,-131.51 619.86,-125.49 618.01,-132.24"/>
</g>
</g>
</svg>
